
<svg width="35" height="27" viewBox="0 0 35 27" fill="none" xmlns="http://www.w3.org/2000/svg">
<path d="M0 9.70945C0 4.34704 3.9427 0 8.80623 0H15.6813C20.5448 0 24.4875 4.34704 24.4875 9.70945C24.4875 15.0718 20.5448 19.419 15.6813 19.419H10.4946V24.1063C10.4946 24.1063 0 21.7626 0 9.70945Z" fill="#F4F5F6"/>
<path fill-rule="evenodd" clip-rule="evenodd" d="M17.9082 21.0861C19.1742 22.4264 20.8933 23.25 22.7869 23.25H25.3619V26.9999C25.3619 26.9999 34.982 25.125 34.982 15.4825C34.982 11.1925 31.8279 7.71484 27.9371 7.71484H26.0046C26.1557 8.34759 26.2361 9.01186 26.2361 9.69696C26.2361 15.2845 22.6687 19.9534 17.9082 21.0861Z" fill="#F4F5F6"/>
</svg>
