<svg width="13" height="668" viewBox="0 0 13 668" fill="none" xmlns="http://www.w3.org/2000/svg">
<rect width="13" height="28" rx="4" fill="#FFFFFF"/>
<rect y="160" width="13" height="28" rx="4" fill="#FFFFFF"/>
<rect y="320" width="13" height="28" rx="4" fill="#FFFFFF"/>
<rect y="480" width="13" height="28" rx="4" fill="#FFFFFF"/>
<rect y="80" width="13" height="28" rx="4" fill="#FFFFFF"/>
<rect y="240" width="13" height="28" rx="4" fill="#FFFFFF"/>
<rect y="400" width="13" height="28" rx="4" fill="#FFFFFF"/>
<rect y="560" width="13" height="28" rx="4" fill="#FFFFFF"/>
<rect y="40" width="13" height="28" rx="4" fill="#FFFFFF"/>
<rect y="200" width="13" height="28" rx="4" fill="#FFFFFF"/>
<rect y="360" width="13" height="28" rx="4" fill="#FFFFFF"/>
<rect y="520" width="13" height="28" rx="4" fill="#FFFFFF"/>
<rect y="120" width="13" height="28" rx="4" fill="#FFFFFF"/>
<rect y="280" width="13" height="28" rx="4" fill="#FFFFFF"/>
<rect y="440" width="13" height="28" rx="4" fill="#FFFFFF"/>
<rect y="600" width="13" height="28" rx="4" fill="#FFFFFF"/>
<rect y="640" width="13" height="28" rx="4" fill="#FFFFFF"/>
</svg>
