<svg width="599" height="508" viewBox="0 0 599 508" fill="none" xmlns="http://www.w3.org/2000/svg">
<path d="M86.915 334.567L142.973 356.164L142.221 296.182L86.915 334.567Z" fill="#103848"/>
<path d="M137.62 262.775C137.62 262.775 81.2381 274.206 12.8711 307.585L60.049 333.547L60.4665 383.25C60.4665 383.25 135.598 338.314 199.371 338.179L137.62 262.775Z" fill="#E9A140"/>
<path d="M54.3984 393.802L53.9157 336.947L0 307.276L10.0571 302.363C78.3679 269.011 134.001 257.509 136.339 257.036L140.108 256.273L211.972 344.018L199.392 344.044C138.065 344.195 64.4836 387.779 63.7419 388.219L54.3984 393.802ZM25.8542 307.955L66.1773 330.146L66.5415 373.022C87.1932 361.863 138.411 336.733 187.176 332.826L135.188 269.343C122.428 272.311 78.3605 283.547 25.8542 307.955Z" fill="#1A445B"/>
<path opacity="0.28" d="M211.97 344.018L140.108 256.273L136.339 257.038C134.987 257.313 87.3618 270.09 58.2979 281.477L72.3242 342.418L111.599 364.611C130.744 358.619 180.009 344.093 199.39 344.044L211.97 344.018Z" fill="#891F1E"/>
<path d="M460.994 262.775C460.994 262.775 517.377 274.206 585.744 307.585L538.566 333.547L538.148 383.25C538.148 383.25 463.017 338.314 399.242 338.179L460.994 262.775Z" fill="#E9A140"/>
<path d="M534.875 388.219C534.133 387.779 460.552 344.195 399.224 344.044L386.645 344.018L458.509 256.273L462.278 257.036C464.616 257.509 520.249 269.011 588.559 302.363L598.617 307.276L544.701 336.947L544.218 393.802L534.875 388.219ZM463.427 269.341L411.439 332.825C460.204 336.732 511.422 361.862 532.074 373.021L532.438 330.144L572.761 307.954C520.255 283.545 476.187 272.309 463.427 269.341Z" fill="#1A445B"/>
<path opacity="0.28" d="M386.645 344.018L458.507 256.273L462.276 257.038C463.628 257.313 507 266.369 538.94 280.287L527.53 342.319L489.494 365.865C463.821 352.734 418.606 344.095 399.224 344.045L386.645 344.018Z" fill="#891F1E"/>
<path d="M511.404 334.567L455.346 356.164L456.099 296.182L511.404 334.567Z" fill="#103848"/>
<path d="M299.306 89.7305C168.537 115.908 69.79 163.436 69.79 163.436C86.7256 435.398 299.306 508 299.306 508C299.306 508 519.075 435.398 528.825 163.436C528.825 163.436 430.078 115.908 299.306 89.7305Z" fill="#1A445B"/>
<path d="M113.611 329.387C113.611 329.387 340.768 284.316 490.019 329.387C490.019 329.387 350.231 329.387 113.611 329.387Z" fill="#103848"/>
<path d="M516.954 158.133C500.023 147.867 481.311 139.64 463.463 131.053C444.712 122.032 425.729 113.339 406.221 105.896C378.357 95.2702 347.897 85.568 317.346 82.748C309.89 94.85 304.212 108.283 301.386 122.826C301.005 124.785 300.721 126.709 300.518 128.602L299.987 128.377L300.218 133.219C300.123 135.953 300.228 138.609 300.475 141.203C300.084 141.196 299.702 141.148 299.307 141.148C298.912 141.148 298.53 141.195 298.137 141.203C298.389 138.586 298.491 135.906 298.394 133.145L298.62 128.378L298.096 128.601C297.893 126.709 297.609 124.788 297.228 122.828C296.344 118.283 295.105 113.882 293.703 109.555C292.532 109.862 291.293 110.085 289.921 110.12C250.677 111.141 211.231 118.467 172.96 126.401C154.441 130.238 136.158 135.2 118.4 141.525C105.527 146.113 93.7396 152.579 81.5713 158.237C86.2275 174.273 94.1142 190.253 105.858 204.154C107.2 205.743 108.637 207.098 110.049 208.52L109.374 208.805L114.625 212.755C130.125 225.779 148.788 230.095 166.449 230.095C181.31 230.095 195.396 227.122 206.245 223.949L251.315 327.742L298.029 310.47L346.244 328.038L391.945 223.809C402.91 227.046 417.17 230.083 432.196 230.079C449.85 230.079 468.466 225.763 483.939 212.79L489.239 208.805L488.564 208.52C489.976 207.099 491.412 205.743 492.755 204.154C504.586 190.153 512.314 174.285 516.954 158.133ZM299.118 304.553L245.332 207.532C246.952 206.628 248.614 205.674 250.338 204.63C257.114 223.937 276.488 237.927 299.307 237.927C322.119 237.927 341.485 223.944 348.269 204.646C349.893 205.631 351.457 206.531 352.984 207.388L299.118 304.553Z" fill="#103848"/>
<path d="M187.833 6.50126C187.495 6.47024 187.158 6.43922 186.823 6.4082C152.617 3.26956 119.189 17.6867 99.1044 44.2424C98.9075 44.5033 98.7091 44.7641 98.5122 45.0264C78.7044 71.2818 71.9652 139.421 110.78 186.058C149.588 232.689 224.452 196.676 224.452 196.676C224.452 196.676 302.251 166.842 291.047 108.304C279.842 49.7597 221.62 9.6413 187.833 6.50126Z" fill="#789CB4"/>
<path d="M187.833 6.50223C187.495 6.47121 187.158 6.44019 186.823 6.40917C152.617 3.27054 119.189 17.6877 99.1044 44.2434C98.9075 44.5043 98.7091 44.7651 98.5122 45.0274C78.7044 71.2828 71.9652 139.422 110.78 186.059C149.588 232.69 224.452 196.677 224.452 196.677C224.452 196.677 302.251 166.843 291.047 108.305C279.842 49.7607 221.62 9.64228 187.833 6.50223Z" fill="#789CB4"/>
<path d="M291.045 108.308C284.098 72.0073 259.073 42.8149 233.009 25.1055C240.18 36.8253 245.66 49.8423 248.363 63.9605C259.566 122.5 181.768 152.334 181.768 152.334C181.768 152.334 133.896 175.321 94.8682 160.697C98.9929 169.557 104.178 178.13 110.776 186.06C149.585 232.69 224.448 196.677 224.448 196.677C224.448 196.677 302.249 166.843 291.045 108.308Z" fill="#5689A5"/>
<path d="M166.45 216.096C145.323 216.096 122.699 210.008 105.857 189.771C65.4672 141.243 71.3803 70.7252 93.4074 41.5314L93.9966 40.7545C115.328 12.5533 151.121 -2.8861 187.43 0.448524L188.444 0.544393C226.003 4.03412 285.566 46.3084 297.229 107.228C309.212 169.846 230.167 200.931 226.797 202.225C225.154 203.027 197.409 216.095 166.45 216.096ZM177.631 11.9667C148.79 11.9667 121.234 25.2164 104.196 47.7367L103.632 48.4911C84.3614 74.0302 79.5024 138.849 115.704 182.34C150.826 224.556 220.922 191.668 221.618 191.333C222.829 190.846 295.011 162.373 284.861 109.374C274.416 54.7754 220.056 15.5016 187.215 12.4503L186.209 12.3587C183.348 12.095 180.478 11.9667 177.631 11.9667Z" fill="#1A445B"/>
<path d="M224.45 196.68C224.45 196.68 289.568 171.559 291.891 122.338L121.293 195.921C161.675 226.722 224.45 196.68 224.45 196.68Z" fill="#FFCE53"/>
<path d="M166.819 215.866C150.101 215.866 132.441 212.09 117.367 200.591L109.375 194.494L298.621 112.865L298.164 122.607C295.734 174.04 232.173 200.117 227.044 202.134C223.845 203.636 196.878 215.866 166.819 215.866ZM134.282 196.884C170.982 215.139 221.088 191.596 221.629 191.334L222.086 191.138C222.65 190.918 274.279 170.472 284.078 132.275L134.282 196.884Z" fill="#1A445B"/>
<path d="M201.215 181.852L255.076 309.635L292.927 293.309L226.166 171.091L201.215 181.852Z" fill="#E9A140"/>
<path d="M250.385 312.964L193.14 178.767L228.998 163.302L301.565 296.152L250.385 312.964ZM209.286 184.939L258.46 301.606L284.29 290.464L223.338 178.876L209.286 184.939Z" fill="#1A445B"/>
<path d="M410.782 6.50126C411.119 6.47024 411.457 6.43922 411.791 6.4082C445.997 3.26956 479.424 17.6867 499.51 44.2424C499.707 44.5033 499.905 44.7641 500.102 45.0264C519.91 71.2818 526.651 139.421 487.835 186.058C449.026 232.689 374.161 196.676 374.161 196.676C374.161 196.676 296.363 166.842 307.566 108.304C318.772 49.7597 376.995 9.6413 410.782 6.50126Z" fill="#EF5050"/>
<path d="M410.782 6.50223C411.119 6.47121 411.457 6.44019 411.791 6.40917C445.997 3.27054 479.424 17.6877 499.51 44.2434C499.707 44.5043 499.905 44.7651 500.102 45.0274C519.91 71.2828 526.651 139.422 487.835 186.059C449.026 232.69 374.161 196.677 374.161 196.677C374.161 196.677 296.363 166.843 307.566 108.305C318.772 49.7607 376.995 9.64228 410.782 6.50223Z" fill="#D13333"/>
<path d="M510.345 66.0879C508.382 90.0337 505.062 99.6062 487.57 120.623C448.762 167.256 373.898 131.241 373.898 131.241C373.898 131.241 332.559 115.361 314.497 84.0695C313.73 86.85 308.119 105.434 307.57 108.309C296.364 166.844 374.162 196.68 374.162 196.68C374.162 196.68 449.027 232.692 487.834 186.062C518.66 149.026 520.706 98.5021 510.345 66.0879Z" fill="#BA202F"/>
<path d="M505.207 41.5357L504.601 40.7447C483.294 12.5618 447.575 -2.9015 411.177 0.452865L410.17 0.545916C372.611 4.03564 313.049 46.3099 301.385 107.23C289.402 169.848 368.448 200.932 371.335 202.015C373.265 202.943 401.166 216.084 432.197 216.084C453.34 216.084 475.931 209.984 492.757 189.771C533.149 141.257 527.227 70.7366 505.207 41.5357ZM482.911 182.34C447.779 224.549 377.7 191.671 376.514 191.127C375.785 190.847 303.578 162.5 313.753 109.377C324.198 54.7783 378.558 15.5073 411.399 12.4533L412.397 12.3602C415.267 12.0951 418.131 11.9711 420.985 11.9711C449.826 11.9711 477.382 25.2207 494.411 47.7383L494.426 47.7298C513.67 73.252 519.11 138.857 482.911 182.34Z" fill="#1A445B"/>
<path d="M374.163 196.68C374.163 196.68 309.046 171.559 306.723 122.338L477.32 195.921C436.939 226.722 374.163 196.68 374.163 196.68Z" fill="#FFCE53"/>
<path d="M431.798 215.868C401.73 215.868 374.763 203.636 371.574 202.134C366.445 200.117 302.875 174.04 300.446 122.607L299.988 112.865L489.242 194.494L481.25 200.591C466.177 212.089 448.509 215.868 431.798 215.868ZM314.531 132.275C324.331 170.472 375.967 190.918 376.531 191.138L376.981 191.333C377.529 191.592 427.725 215.05 464.328 196.882L314.531 132.275Z" fill="#1A445B"/>
<path d="M396.604 182.613L342.743 310.396L304.893 294.069L371.653 171.852L396.604 182.613Z" fill="#E9A140"/>
<path d="M345.937 314.737L296.259 296.91L368.826 164.062L404.677 179.524L345.937 314.737ZM313.533 291.224L339.355 302.367L388.529 185.697L374.485 179.637L313.533 291.224Z" fill="#1A445B"/>
<path opacity="0.43" d="M471.587 38.6972C472.69 38.9468 473.572 39.2119 473.861 39.4995C462.693 28.4071 441.728 19.1407 425.048 17.7815C411.749 16.6986 395.382 20.5859 384.325 27.2425C378.76 30.5954 373.654 34.511 368.817 38.6549C365.989 41.0773 359.636 47.8579 357.971 50.2225C357.971 50.2225 415.561 16.9792 471.587 38.6972Z" fill="#FCDEDD"/>
<path opacity="0.43" d="M173.188 22.3895C174.173 21.8551 175.008 21.473 175.424 21.497C159.311 20.6581 137.352 27.5261 124.193 37.382C113.703 45.2412 104.535 58.7264 101.232 70.7804C99.5711 76.8504 98.6488 83.0303 98.0876 89.2033C97.759 92.8128 97.981 101.897 98.4607 104.708C98.4607 104.708 116.689 42.9669 173.188 22.3895Z" fill="#DBF0F9"/>
<path d="M299.308 218.071C324.321 218.071 344.598 198.759 344.598 174.938C344.598 151.116 324.321 131.805 299.308 131.805C274.295 131.805 254.018 151.116 254.018 174.938C254.018 198.759 274.295 218.071 299.308 218.071Z" fill="white"/>
<path d="M343.3 165.079C340.471 176.565 332.806 186.225 322.511 192.145C327.139 187.024 330.036 180.441 330.036 173.154C330.036 170.845 329.687 168.621 329.157 166.467C325.971 179.393 313.856 189.045 299.31 189.045C284.765 189.045 272.647 179.393 269.463 166.467C268.931 168.621 268.582 170.845 268.582 173.154C268.582 180.441 271.479 187.02 276.107 192.145C265.812 186.225 258.147 176.566 255.318 165.079C254.535 168.257 254.02 171.533 254.02 174.938C254.02 198.758 274.297 218.069 299.311 218.069C324.325 218.069 344.6 198.758 344.6 174.938C344.599 171.533 344.083 168.257 343.3 165.079Z" fill="#FDE4D3"/>
<path d="M299.308 224.051C270.869 224.051 247.737 202.018 247.737 174.934C247.737 147.854 270.869 125.82 299.308 125.82C327.747 125.82 350.879 147.854 350.879 174.934C350.88 202.019 327.749 224.051 299.308 224.051ZM299.308 137.787C277.796 137.787 260.301 154.452 260.301 174.936C260.301 195.422 277.796 212.088 299.308 212.088C320.82 212.088 338.315 195.422 338.315 174.936C338.316 154.45 320.82 137.787 299.308 137.787Z" fill="#1A445B"/>
<path d="M506.654 327.561C369.658 302.674 228.957 302.674 91.9613 327.561C87.046 303.008 82.1263 278.463 77.208 253.909C223.952 227.249 374.665 227.249 521.408 253.909C516.49 278.463 511.573 303.008 506.654 327.561Z" fill="#E9A140"/>
<path d="M506.654 327.561C369.658 302.674 228.957 302.674 91.9613 327.561C87.046 303.008 82.1263 278.463 77.208 253.909C223.952 227.249 374.665 227.249 521.408 253.909C516.49 278.463 511.573 303.008 506.654 327.561Z" fill="#E9A140"/>
<g opacity="0.4">
<path opacity="0.28" d="M506.654 327.562C508.651 317.59 510.65 307.62 512.645 297.649C376.635 261.529 229.924 262.684 85.9697 297.649C87.9669 307.62 89.9656 317.59 91.9613 327.562C228.957 302.674 369.658 302.674 506.654 327.562Z" fill="#891F1E"/>
</g>
<path d="M86.9622 334.562L69.8594 249.157L76.0272 248.035C224.188 221.121 374.426 221.121 522.588 248.035L528.755 249.157L511.644 334.562L505.476 333.442C368.668 308.59 229.947 308.59 93.1389 333.442L86.9622 334.562ZM299.306 302.836C366.9 302.836 434.503 308.752 501.655 320.583L514.054 258.685C371.521 233.523 227.09 233.523 84.5564 258.685L96.9557 320.583C164.11 308.752 231.712 302.836 299.306 302.836Z" fill="#1A445B"/>
<g opacity="0.28">
<path d="M174.071 271.08L162.834 272.601L161.796 263.751L194.571 259.311L195.6 268.161L184.415 269.675L187.983 300.286L177.639 301.688L174.071 271.08Z" fill="#891F1E"/>
<path d="M247.754 287.049L232.203 288.161L229.793 296.075L219.173 296.834L232.965 256.011L243.216 255.277L261.942 293.774L251.116 294.548L247.754 287.049ZM244.204 278.995L238.689 266.643L234.743 279.673L244.204 278.995Z" fill="#891F1E"/>
<path d="M316.509 282.354C316.57 289.228 311.336 293.319 301.437 293.427L281.529 293.647L281.151 253.883L300.006 253.674C309.699 253.567 314.485 257.777 314.537 263.912C314.58 267.716 312.812 270.804 309.673 272.6C313.85 274.147 316.457 277.525 316.509 282.354ZM291.556 261.893L291.625 269.562L298.787 269.483C302.26 269.446 304.044 268.118 304.019 265.563C303.994 263.063 302.192 261.777 298.718 261.814L291.556 261.893ZM305.959 281.222C305.934 278.495 304.021 277.209 300.444 277.249L291.703 277.343L291.771 285.41L300.521 285.315C304.096 285.276 305.984 283.948 305.959 281.222Z" fill="#891F1E"/>
<path d="M344.583 253.346L355.013 253.804L353.847 284.65L371.44 285.423L371.105 294.341L343.082 293.11L344.583 253.346Z" fill="#891F1E"/>
<path d="M426.805 290.58L426.041 299.225L396.594 296.22L400.06 256.66L428.829 259.594L428.074 268.242L409.572 266.355L408.989 273.023L425.286 274.688L424.558 283.051L408.26 281.389L407.625 288.623L426.805 290.58Z" fill="#891F1E"/>
</g>
<path d="M170.201 269.367L158.677 270.744L157.612 262.728L191.226 258.707L192.281 266.723L180.81 268.095L184.47 295.817L173.861 297.086L170.201 269.367Z" fill="white"/>
<path d="M243.796 283.832L227.846 284.84L225.374 292.007L214.483 292.694L228.628 255.723L239.14 255.059L258.344 289.923L247.241 290.626L243.796 283.832ZM240.154 276.537L234.497 265.35L230.451 277.15L240.154 276.537Z" fill="white"/>
<path d="M318.252 278.918C318.314 285.143 312.947 288.849 302.795 288.946L282.378 289.145L281.991 253.132L301.327 252.943C311.267 252.847 316.176 256.658 316.228 262.215C316.272 265.661 314.46 268.457 311.24 270.084C315.525 271.485 318.2 274.546 318.252 278.918ZM292.663 260.386L292.734 267.332L300.079 267.26C303.641 267.226 305.471 266.025 305.445 263.71C305.419 261.445 303.571 260.281 300.009 260.315L292.663 260.386ZM307.432 277.892C307.406 275.423 305.444 274.258 301.777 274.293L292.812 274.379L292.883 281.684L301.857 281.598C305.522 281.563 307.459 280.362 307.432 277.892Z" fill="white"/>
<path d="M346.648 253.307L357.345 253.721L356.149 281.657L374.192 282.357L373.848 290.433L345.108 289.319L346.648 253.307Z" fill="white"/>
<path d="M430.185 287.032L429.402 294.862L399.202 292.14L402.755 256.312L432.26 258.97L431.486 266.801L412.512 265.092L411.914 271.131L428.627 272.639L427.88 280.212L411.166 278.706L410.515 285.257L430.185 287.032Z" fill="white"/>
<path d="M479.806 347.4C478.351 346.921 476.811 346.613 475.181 346.613H432.484C430.021 346.613 427.657 347.276 425.547 348.401C423.486 347.296 421.139 346.613 418.605 346.613H381.25C377.47 346.613 373.84 348.043 371.172 350.589C370.91 350.843 370.657 351.104 370.42 351.369C367.728 348.37 363.778 346.613 359.583 346.613H319.986C317.569 346.613 315.243 347.256 313.161 348.346C311.124 347.275 308.817 346.613 306.327 346.613H268.972C265.194 346.613 261.563 348.043 258.896 350.589C258.634 350.843 258.381 351.104 258.144 351.369C255.452 348.374 251.502 346.613 247.307 346.613H207.709C204.829 346.613 202.161 347.44 199.921 348.837C197.621 347.403 194.916 346.613 192.127 346.613H122.991C137.69 367.996 165.655 406.018 199.654 439.159C199.827 439.054 200.033 439.003 200.2 438.89C202.357 440.136 204.863 440.879 207.554 440.879C207.709 440.879 207.872 440.879 208.036 440.871C220.437 440.482 232.836 440.177 245.244 439.96C249.023 439.89 252.622 438.394 255.248 435.792C255.928 435.114 256.532 434.382 257.047 433.604C258.453 434.757 259.86 435.84 261.259 436.855C263.746 438.659 266.78 439.633 269.896 439.633C269.938 439.633 269.97 439.633 270.01 439.633C277.012 439.578 284.022 439.543 291.023 439.543C291.023 439.543 299.906 439.563 299.93 439.563C303.67 439.563 307.261 438.161 309.925 435.66C312.568 438.195 316.137 439.649 319.887 439.687C332.295 439.815 344.695 440.038 357.103 440.33C357.226 440.334 357.34 440.334 357.463 440.334C362.362 440.334 366.705 437.965 369.274 434.343C370.427 435.426 371.572 436.462 372.701 437.459C375.212 439.664 378.459 440.937 381.87 441.05C388.004 441.256 394.139 441.525 400.272 441.771C428.751 418.524 457.878 387.537 479.806 347.4Z" fill="#103848"/>
<path d="M570.772 387.346C569.946 385.847 569.013 384.405 567.975 383.023C568.008 382.992 568.04 382.961 568.073 382.93C570.772 380.274 572.211 376.694 572.073 373.005C571.852 367.031 571.639 361.04 571.542 355.066C571.467 350.256 568.72 345.843 564.327 343.474C559.502 340.864 553.775 338.855 546.758 337.313C540.295 335.911 533.556 335.222 525.541 335.193C518.138 335.193 511.39 335.887 505.314 337.289C498.615 338.924 493.208 341.355 488.578 344.884C488.501 344.946 488.438 345.017 488.362 345.079C486.237 340.121 481.146 336.623 475.181 336.623H432.485C430.021 336.623 427.657 337.286 425.547 338.411C423.486 337.304 421.139 336.623 418.605 336.623H381.25C377.47 336.623 373.84 338.053 371.172 340.599C370.91 340.853 370.657 341.114 370.42 341.378C367.728 338.379 363.779 336.622 359.583 336.622H319.986C317.569 336.622 315.243 337.265 313.161 338.355C311.124 337.283 308.818 336.622 306.327 336.622H268.973C265.194 336.622 261.563 338.051 258.896 340.598C258.634 340.852 258.381 341.112 258.144 341.376C255.453 338.381 251.503 336.62 247.307 336.62H207.708C204.828 336.62 202.16 337.447 199.92 338.844C197.619 337.411 194.914 336.62 192.125 336.62H119.001C116.514 336.62 114.212 337.283 112.176 338.346C110.095 337.263 107.772 336.62 105.358 336.62H25.094C17.2503 336.62 10.8781 342.661 10.8456 350.135C10.813 358.217 10.511 366.326 10.2075 374.432C10.0683 378.125 11.5088 381.712 14.2078 384.36C16.8994 387.001 20.5873 388.484 24.4396 388.484C24.4648 388.484 35.0238 388.449 35.0238 388.449C34.9172 392.27 34.8446 396.098 34.8106 399.903C30.2713 402.268 27.2526 406.918 27.4006 412.169C27.5635 418.094 27.9084 423.557 28.4399 428.877C28.8086 432.46 30.6489 435.764 33.5684 438.053C36.1282 440.06 39.335 441.143 42.6232 441.143C43.0807 441.143 43.5471 441.123 44.0134 441.076C58.8422 439.697 73.6888 438.444 88.5413 437.31C92.3121 437.026 95.8121 435.319 98.2579 432.57C100.711 429.821 101.913 426.256 101.602 422.662C101.243 418.541 101.038 414.195 100.948 409.669C100.883 406.016 99.2705 402.541 96.4738 400.033C95.5411 399.2 94.5018 398.491 93.3899 397.929C93.4225 394.774 93.4877 391.549 93.5691 388.27L104.996 388.239C106.966 388.231 108.841 387.834 110.549 387.136C110.484 390.661 110.429 394.115 110.402 397.461C106.469 399.93 103.907 404.2 103.99 409.006C104.064 413.82 104.252 418.346 104.563 422.537C105.095 429.684 111.344 435.147 118.754 435.147C119.081 435.147 119.408 435.132 119.745 435.112C144.013 433.534 168.493 432.288 192.5 431.408C195.293 431.302 197.957 430.416 200.197 428.896C202.354 430.142 204.861 430.886 207.551 430.886C207.706 430.886 207.869 430.886 208.033 430.878C220.434 430.489 232.833 430.184 245.241 429.967C249.02 429.897 252.619 428.402 255.245 425.799C255.925 425.121 256.529 424.389 257.044 423.611C258.451 424.764 259.857 425.847 261.256 426.864C263.743 428.667 266.777 429.641 269.893 429.641C269.935 429.641 269.967 429.641 270.007 429.641C277.009 429.586 284.019 429.551 291.02 429.551C291.02 429.551 299.903 429.571 299.927 429.571C303.667 429.571 307.259 428.168 309.922 425.668C312.565 428.203 316.134 429.657 319.884 429.695C332.292 429.823 344.692 430.046 357.1 430.338C357.223 430.342 357.337 430.342 357.46 430.342C362.359 430.342 366.702 427.973 369.271 424.351C370.424 425.434 371.569 426.47 372.699 427.467C375.21 429.672 378.456 430.946 381.867 431.058C391.822 431.394 401.768 431.779 411.722 432.227C411.951 432.234 412.179 432.243 412.401 432.243C416.098 432.243 419.483 430.877 422.029 428.645C422.04 428.653 422.046 428.664 422.054 428.676C424.574 431.374 428.123 433.003 431.919 433.202C446.077 433.942 460.235 434.791 474.402 435.757C474.746 435.781 475.089 435.796 475.433 435.796C479.076 435.796 482.438 434.464 484.982 432.267C485.219 432.375 485.401 432.559 485.648 432.656C489.902 434.347 495.283 435.92 502.146 437.481C509.344 439.09 516.116 440.161 522.806 440.749C526.062 441.045 529.153 441.193 532.065 441.193C542.789 441.193 551.409 439.2 558.362 435.122C569.02 428.921 574.901 418.105 574.926 404.718C574.96 398.104 573.528 392.192 570.772 387.346Z" fill="#1A445B"/>
<path d="M25.0923 350.191C51.8437 350.191 78.6024 350.191 105.357 350.191C105.346 358.429 105.154 366.654 104.954 374.679C98.8203 374.698 92.6806 374.714 86.5424 374.729C86.6164 372.108 86.686 369.476 86.7482 366.815C84.4667 366.822 82.1882 366.808 79.9038 366.822C79.5277 381.95 78.9059 396.727 79.1961 410.208C81.7026 410.11 84.1973 410.017 86.7052 409.916C86.8 414.745 87.0236 419.388 87.4041 423.793C72.4687 424.931 57.5377 426.193 42.6201 427.583C42.096 422.403 41.7895 417.145 41.6429 411.821C44.148 411.699 46.65 411.591 49.1521 411.47C48.7775 397.105 49.5133 382.056 49.9664 366.853C47.6849 366.869 45.4064 366.853 43.1249 366.862C43.048 369.525 42.9532 372.197 42.8599 374.866C36.7217 374.89 30.5821 374.897 24.4424 374.924C24.7533 366.674 25.0597 358.417 25.0923 350.191Z" fill="white"/>
<path d="M168.081 366.752C163.774 366.761 159.456 366.752 155.147 366.761C155.07 372.03 154.976 377.179 154.888 382.196C158.031 382.192 161.169 382.169 164.31 382.161C164.253 385.756 164.204 389.277 164.164 392.657C161.019 392.683 157.875 392.707 154.731 392.738C154.672 398.058 154.644 403.114 154.7 407.749C159.025 407.641 163.348 407.539 167.673 407.438C167.631 403.391 167.644 399.013 167.687 394.394C175.698 394.303 183.702 394.241 191.706 394.184C191.636 403.468 191.657 411.625 191.954 417.857C167.547 418.753 143.157 419.999 118.774 421.585C118.475 417.627 118.308 413.351 118.232 408.807C120.378 408.74 122.533 408.67 124.671 408.604C124.479 396.272 124.941 381.815 125.219 366.78C123.084 366.789 120.942 366.78 118.807 366.789C118.915 361.305 118.989 355.752 119.005 350.193C143.377 350.193 167.748 350.193 192.125 350.193C192.108 360.417 191.986 370.638 191.857 380.18C183.865 380.204 175.87 380.226 167.878 380.246C167.948 375.851 168.018 371.34 168.081 366.752Z" fill="white"/>
<path d="M268.97 350.191C281.419 350.191 293.876 350.191 306.324 350.191C306.323 355.754 306.326 361.292 306.339 366.718C304.203 366.714 302.068 366.714 299.928 366.718C299.94 387.01 299.977 405.519 299.933 416.011C289.928 415.965 279.903 416.004 269.896 416.082C259.343 408.42 248.857 396.362 238.502 382.429C238.444 391.305 238.4 399.447 238.427 406.269C240.576 406.25 242.711 406.227 244.858 406.207C244.874 410.079 244.907 413.522 244.975 416.409C232.5 416.632 220.034 416.935 207.561 417.328C207.438 414.247 207.373 410.671 207.342 406.667C209.487 406.636 211.634 406.597 213.778 406.57C213.712 395.665 213.917 381.634 214.031 366.729C211.891 366.725 209.757 366.725 207.62 366.733C207.669 361.284 207.697 355.745 207.707 350.191C220.905 350.191 234.102 350.191 247.304 350.191C256.65 363.812 265.934 377.382 275.314 389.152C275.324 382.184 275.345 374.59 275.356 366.718C273.22 366.714 271.088 366.714 268.946 366.718C268.962 361.299 268.974 355.745 268.97 350.191Z" fill="white"/>
<path d="M381.25 350.192C393.702 350.192 406.148 350.192 418.603 350.192C418.614 355.742 418.662 361.304 418.742 366.757C416.606 366.761 414.467 366.746 412.33 366.748C412.594 387.154 413.088 406.145 412.395 418.678C402.389 418.23 392.38 417.841 382.371 417.507C372.275 408.631 361.651 396.423 351.105 382.437C351.17 391.317 351.224 399.488 351.187 406.324C353.336 406.355 355.47 406.37 357.619 406.399C357.605 410.324 357.548 413.814 357.455 416.782C344.982 416.49 332.511 416.264 320.038 416.135C320.083 413.31 320.091 409.915 320.102 406.07C322.243 406.101 324.385 406.086 326.533 406.105C326.56 395.543 326.465 381.614 326.422 366.716C324.293 366.712 322.146 366.712 320.012 366.716C319.994 361.299 319.989 355.745 319.983 350.189C333.187 350.189 346.376 350.189 359.581 350.189C368.944 363.81 378.481 377.349 388.008 389.391C387.937 382.286 387.835 374.637 387.755 366.734C385.619 366.734 383.475 366.734 381.343 366.73C381.294 361.285 381.254 355.746 381.25 350.192Z" fill="white"/>
<path d="M432.486 350.191C446.718 350.191 460.951 350.191 475.184 350.191C475.196 355.75 475.291 361.295 475.397 366.795C473.261 366.787 471.122 366.795 468.985 366.787C469.281 381.84 469.78 396.36 469.569 408.917C471.714 408.988 473.856 409.066 476.003 409.128C475.922 413.751 475.741 418.151 475.417 422.229C461.18 421.259 446.941 420.402 432.698 419.659C432.928 416.118 433.053 412.129 433.102 407.842C435.249 407.901 437.388 407.954 439.535 408.009C439.696 396.091 439.288 381.758 439.055 366.767C436.92 366.771 434.781 366.771 432.643 366.763C432.556 361.306 432.498 355.745 432.486 350.191Z" fill="white"/>
<path d="M521.833 409.485C524.193 409.578 525.878 409.328 526.901 408.74C527.899 408.152 528.439 407.218 528.432 405.936C528.444 405.087 528.035 404.23 527.207 403.549C526.381 402.868 524.717 402.041 522.211 401.071C516.896 399.162 512.266 397.325 508.258 395.666C504.261 393.971 500.927 392.11 498.281 390.116C495.625 388.098 493.625 385.738 492.269 383.039C490.932 380.371 490.167 377.03 490.081 373.116C489.987 369.376 490.522 366.035 491.712 363.02C492.914 360.001 494.906 357.517 497.679 355.324C500.475 353.194 504.186 351.574 508.849 350.436C513.532 349.353 519.257 348.73 526.085 348.765C532.312 348.785 538.082 349.346 543.597 350.542C549.067 351.746 553.646 353.302 557.303 355.274C557.394 361.342 557.614 367.425 557.841 373.493C550.351 373.469 542.853 373.447 535.362 373.427C535.301 371.456 534.68 370.148 533.517 369.431C532.355 368.691 530.958 368.364 529.313 368.36C526.951 368.317 525.29 368.667 524.254 369.213C523.241 369.778 522.747 370.791 522.796 372.181C522.818 373.326 523.395 374.167 524.529 374.705C525.64 375.257 527.329 375.858 529.573 376.535C533.754 377.816 537.694 379.211 541.441 380.612C545.17 382.03 548.447 383.853 551.326 385.932C554.191 388.067 556.465 390.567 558.135 393.617C559.851 396.636 560.701 400.311 560.673 404.647C560.657 413.472 557.254 419.868 550.931 423.549C544.596 427.265 535.627 428.286 524.144 427.249C517.58 426.668 511.365 425.609 505.401 424.277C499.418 422.918 494.678 421.547 491.126 420.137C491.475 414.789 491.606 409.065 491.615 403.093C499.485 403.292 507.358 403.502 515.229 403.728C515.212 405.593 515.637 407.003 516.489 407.927C517.332 408.87 519.115 409.338 521.833 409.485Z" fill="white"/>
<path d="M49.1527 411.466C46.6521 411.587 44.1486 411.696 41.6436 411.817C41.7901 417.141 42.0981 422.399 42.6207 427.579C57.5383 426.189 72.4693 424.927 87.4047 423.789C87.0242 419.385 86.7991 414.741 86.7059 409.912C84.1994 410.014 81.7047 410.107 79.1967 410.204C79.1553 408.272 79.1686 406.259 79.1597 404.279C68.2853 406.266 58.2549 408.233 49.1572 410.121C49.1675 410.562 49.1423 411.025 49.1527 411.466Z" fill="#FDE4D3"/>
<path d="M164.165 392.651C164.169 392.282 164.177 391.876 164.181 391.502C150.383 393.133 137.181 394.901 124.666 396.753C124.628 400.85 124.613 404.846 124.672 408.597C122.533 408.663 120.379 408.733 118.233 408.8C118.309 413.346 118.476 417.622 118.775 421.578C143.158 419.994 167.549 418.747 191.955 417.85C191.656 411.618 191.637 403.463 191.707 394.177C183.703 394.235 175.699 394.298 167.688 394.387C167.645 399.006 167.634 403.384 167.674 407.431C163.349 407.532 159.026 407.634 154.701 407.742C154.644 403.108 154.673 398.051 154.732 392.731C157.874 392.702 161.02 392.679 164.165 392.651Z" fill="#FDE4D3"/>
<path d="M213.777 406.566C211.633 406.593 209.486 406.632 207.341 406.663C207.372 410.668 207.437 414.243 207.56 417.324C220.033 416.931 232.499 416.628 244.974 416.405C244.906 413.519 244.873 410.075 244.857 406.204C242.71 406.223 240.575 406.246 238.426 406.266C238.4 400.073 238.436 392.758 238.486 384.828C230.139 385.346 221.916 385.922 213.848 386.572C213.784 393.897 213.741 400.705 213.777 406.566Z" fill="#FDE4D3"/>
<path d="M275.314 389.147C273.805 387.251 272.3 385.244 270.793 383.262C260.451 383.636 250.273 384.123 240.285 384.727C250.061 397.649 259.946 408.852 269.897 416.077C279.904 415.999 289.928 415.959 299.933 416.006C299.966 408.333 299.956 396.349 299.941 382.537C291.643 382.643 283.438 382.825 275.326 383.09C275.321 385.12 275.318 387.208 275.314 389.147Z" fill="#FDE4D3"/>
<path d="M326.535 406.102C324.388 406.082 322.245 406.098 320.104 406.067C320.093 409.91 320.086 413.307 320.04 416.131C332.513 416.259 344.984 416.485 357.457 416.778C357.549 413.81 357.607 410.321 357.621 406.395C355.472 406.368 353.338 406.353 351.188 406.32C351.223 399.637 351.174 391.668 351.11 383.022C342.837 382.761 334.625 382.582 326.485 382.5C326.52 391.281 326.551 399.41 326.535 406.102Z" fill="#FDE4D3"/>
<path d="M387.96 384.776C387.976 386.307 387.997 387.903 388.01 389.388C386.759 387.806 385.505 386.135 384.254 384.504C373.257 383.823 362.382 383.374 351.573 383.027C361.965 396.756 372.425 408.757 382.371 417.502C392.381 417.836 402.387 418.226 412.396 418.673C412.856 410.361 412.791 399.183 412.619 386.661C404.355 385.925 396.141 385.309 387.96 384.776Z" fill="#FDE4D3"/>
<path d="M469.53 393.451C459.476 391.952 449.444 390.588 439.452 389.424C439.554 396.034 439.612 402.308 439.533 408.006C437.387 407.951 435.247 407.897 433.1 407.838C433.052 412.126 432.924 416.115 432.696 419.655C446.939 420.4 461.178 421.256 475.415 422.226C475.741 418.148 475.92 413.746 476.001 409.124C473.854 409.062 471.711 408.983 469.567 408.914C469.648 404.048 469.608 398.821 469.53 393.451Z" fill="#FDE4D3"/>
<path d="M527.699 404.145C528.145 404.706 528.439 405.309 528.432 405.932C528.438 407.214 527.897 408.149 526.901 408.737C525.878 409.325 524.193 409.574 521.833 409.481C519.115 409.333 517.332 408.867 516.492 407.923C515.64 407 515.215 405.59 515.232 403.724C507.361 403.499 499.488 403.289 491.617 403.09C491.609 409.061 491.478 414.786 491.129 420.134C494.681 421.544 499.421 422.914 505.404 424.274C511.367 425.606 517.583 426.665 524.147 427.246C535.632 428.282 544.599 427.261 550.934 423.546C555.361 420.967 558.261 416.984 559.663 411.842C549.023 409.06 538.368 406.478 527.699 404.145Z" fill="#FDE4D3"/>
<path d="M299.308 448.145L307.109 460.868L322.225 464.001L311.93 474.999L313.472 489.659L299.308 483.731L285.144 489.659L286.687 474.999L276.392 464.001L291.508 460.868L299.308 448.145Z" fill="#E9A140"/>
<path d="M327.647 463.451C327.647 463.395 327.696 463.355 327.693 463.297C327.684 463.066 327.514 462.896 327.443 462.681C327.372 462.467 327.404 462.232 327.271 462.034C327.234 461.982 327.17 461.959 327.129 461.907C327.033 461.785 326.908 461.714 326.79 461.605C326.507 461.356 326.202 461.173 325.842 461.06C325.748 461.033 325.697 460.941 325.601 460.92L309.782 457.646L301.614 444.326C301.577 444.27 301.509 444.243 301.467 444.191C301.378 444.064 301.256 443.995 301.143 443.885C300.872 443.627 300.585 443.431 300.234 443.304C300.144 443.269 300.098 443.181 300.006 443.156C299.777 443.099 299.538 443.068 299.309 443.068C299.079 443.068 298.841 443.099 298.611 443.156C298.52 443.183 298.474 443.27 298.385 443.304C298.034 443.431 297.747 443.627 297.476 443.885C297.363 443.995 297.242 444.064 297.152 444.191C297.11 444.243 297.042 444.27 297.005 444.326L288.837 457.646L273.018 460.92C272.922 460.943 272.871 461.034 272.776 461.06C272.417 461.174 272.11 461.357 271.829 461.605C271.709 461.715 271.586 461.785 271.49 461.907C271.448 461.959 271.385 461.982 271.348 462.034C271.215 462.23 271.247 462.467 271.176 462.681C271.105 462.896 270.935 463.066 270.926 463.297C270.924 463.354 270.972 463.393 270.972 463.451C270.976 463.744 271.117 463.988 271.229 464.269C271.326 464.51 271.367 464.75 271.533 464.951C271.57 464.995 271.561 465.051 271.596 465.091L282.376 476.605L280.758 491.948C280.75 492.009 280.804 492.063 280.801 492.123C280.792 492.398 280.906 492.635 280.992 492.902C281.076 493.168 281.116 493.422 281.283 493.645C281.318 493.693 281.306 493.759 281.346 493.803C281.429 493.903 281.583 493.873 281.676 493.956C281.929 494.183 282.135 494.458 282.474 494.581C282.777 494.685 283.099 494.739 283.409 494.739C283.768 494.739 284.135 494.668 284.483 494.529L299.307 488.319L314.133 494.526C314.482 494.665 314.85 494.736 315.206 494.736C315.519 494.736 315.84 494.684 316.144 494.578C316.483 494.455 316.69 494.18 316.942 493.953C317.036 493.87 317.189 493.901 317.272 493.8C317.31 493.756 317.3 493.691 317.334 493.642C317.501 493.419 317.541 493.165 317.626 492.899C317.71 492.632 317.825 492.395 317.817 492.12C317.815 492.06 317.867 492.006 317.861 491.946L316.243 476.602L327.022 465.088C327.059 465.049 327.05 464.992 327.086 464.949C327.252 464.747 327.293 464.507 327.389 464.266C327.502 463.988 327.643 463.743 327.647 463.451Z" fill="white"/>
<path d="M291.507 460.87L299.308 470.656V448.145L291.507 460.87Z" fill="#FCC683"/>
<path d="M291.507 460.869L276.39 464.001L299.308 470.656L291.507 460.869Z" fill="#E9A140"/>
<path d="M286.687 475.004L285.143 489.664L299.307 470.66L286.687 475.004Z" fill="#E9A140"/>
<path d="M285.143 489.664L299.307 483.736V470.66L285.143 489.664Z" fill="#FCC683"/>
<path d="M299.307 483.736L313.469 489.664L299.307 470.66V483.736Z" fill="#E9A140"/>
<path d="M311.928 474.999L322.223 464L299.307 470.655L311.928 474.999Z" fill="#E9A140"/>
<path d="M299.307 448.145V470.656L307.106 460.87L299.307 448.145Z" fill="#E9A140"/>
<path d="M299.307 470.656L322.223 464.001L307.106 460.869L299.307 470.656Z" fill="#FCC683"/>
<path d="M299.307 470.66L313.469 489.664L311.928 475.004L299.307 470.66Z" fill="#FCC683"/>
<path d="M286.688 474.999L299.308 470.655L276.39 464L286.688 474.999Z" fill="#FCC683"/>
</svg>
