<svg width="80" height="80" viewBox="0 0 80 80" fill="none" xmlns="http://www.w3.org/2000/svg">
<rect x="1" y="1" width="78" height="78" rx="15" stroke="#3DBDA7" stroke-width="2" stroke-miterlimit="1.97146" stroke-dasharray="48 24 16 32"/>
<rect x="10" y="10" width="60" height="60" rx="30" fill="#3DBDA7"/>
<rect x="63" y="59" width="38" height="38" transform="rotate(180 63 59)" stroke="black"/>
<path fill-rule="evenodd" clip-rule="evenodd" d="M27.833 47.7915C27.833 51.3123 30.6872 54.1665 34.208 54.1665H41.9997C45.1292 54.1665 47.6663 51.6295 47.6663 48.4998V47.0832C47.6663 46.3008 47.0321 45.6665 46.2497 45.6665C45.4672 45.6665 44.833 46.3008 44.833 47.0832V48.4998C44.833 50.0646 43.5645 51.3332 41.9997 51.3332H34.208C32.252 51.3332 30.6663 49.7475 30.6663 47.7915V32.2082C30.6663 30.2522 32.252 28.6665 34.208 28.6665H41.9997C43.5645 28.6665 44.833 29.935 44.833 31.4998V32.9165C44.833 33.6989 45.4672 34.3332 46.2497 34.3332C47.0321 34.3332 47.6663 33.6989 47.6663 32.9165V31.4998C47.6663 28.3703 45.1292 25.8332 41.9997 25.8332H34.208C30.6872 25.8332 27.833 28.6873 27.833 32.2082V47.7915ZM50.9146 45.2516C51.4678 45.8048 52.3649 45.8048 52.9181 45.2516L57.1681 41.0016C57.7213 40.4484 57.7213 39.5513 57.1681 38.9981L52.9181 34.7481C52.3649 34.1949 51.4678 34.1949 50.9146 34.7481C50.3614 35.3013 50.3614 36.1984 50.9146 36.7516L52.7462 38.5832H40.583C39.8006 38.5832 39.1663 39.2174 39.1663 39.9998C39.1663 40.7823 39.8006 41.4165 40.583 41.4165H52.7462L50.9146 43.2481C50.3614 43.8013 50.3614 44.6983 50.9146 45.2516Z" fill="#393A3C"/>
</svg>
