<svg width="37" height="36" viewBox="0 0 37 36" fill="none" xmlns="http://www.w3.org/2000/svg">
<g clip-path="url(#clip0_367_1614)">
<path fill-rule="evenodd" clip-rule="evenodd" d="M18.5 0C28.7176 0 37 8.26187 37 18.4553C37 26.6075 31.7053 33.5231 24.3589 35.9657C23.421 36.1475 23.088 35.5712 23.088 35.0798C23.088 34.4714 23.1102 32.4842 23.1102 30.0147C23.1102 28.2938 22.5182 27.1707 21.8541 26.5983C25.974 26.1411 30.303 24.5804 30.303 17.492C30.303 15.476 29.5852 13.8309 28.3975 12.5385C28.5899 12.0723 29.2244 10.1951 28.2162 7.65352C28.2162 7.65352 26.6659 7.159 23.1342 9.5458C21.6561 9.1372 20.0725 8.93161 18.5 8.92441C16.9275 8.93161 15.3458 9.1372 13.8695 9.5458C10.3341 7.159 8.7801 7.65352 8.7801 7.65352C7.77555 10.1951 8.4101 12.0723 8.60065 12.5385C7.4185 13.8309 6.69516 15.476 6.69516 17.492C6.69516 24.5624 11.0149 26.1471 15.1238 26.6133C14.5947 27.0741 14.1155 27.887 13.949 29.0804C12.8945 29.552 10.2157 30.3682 8.5655 27.5476C8.5655 27.5476 7.58685 25.7743 5.72945 25.6447C5.72945 25.6447 3.9257 25.6214 5.60365 26.7662C5.60365 26.7662 6.8154 27.3332 7.65715 29.4662C7.65715 29.4662 8.74311 32.7601 13.8898 31.6441C13.8991 33.1867 13.9157 34.6406 13.9157 35.0798C13.9157 35.5676 13.5753 36.1385 12.6521 35.9675C5.30024 33.5285 0 26.6093 0 18.4553C0 8.26187 8.2843 0 18.5 0Z" fill="black"/>
</g>
<defs>
<clipPath id="clip0_367_1614">
<rect width="37" height="36" fill="white"/>
</clipPath>
</defs>
</svg>
