<svg width="962" height="337" viewBox="0 0 962 337" fill="none" xmlns="http://www.w3.org/2000/svg">
<path opacity="0.5" d="M141.17 286.466C111.9 279.061 81.64 270.363 59.499 250.662C37.358 230.961 26.215 196.978 42.239 172.477C50.572 159.735 64.996 151.054 71.667 137.452C77.823 124.901 76.426 110.026 81.834 97.1651C90.262 77.1252 112.845 66.433 133.966 58.6501C267.092 9.59453 413.09 5.70213 555.768 2.41332C641.396 0.439465 728.804 -1.31221 810.634 22.8203C842.761 32.2948 877.915 50.7928 882.572 82.55C885.121 99.9323 877.58 117.592 880.121 134.975C883.771 159.946 906.918 178.23 915.583 202.049C923.274 223.192 918.161 248.106 902.681 264.926C887.201 281.745 861.957 289.813 838.974 285.285" fill="#D3DDE6"/>
<path d="M961.391 289.077C961.391 306.682 743.085 336.579 477.605 336.579C212.125 336.579 0 306.682 0 289.077C0 271.471 215.215 257.199 480.696 257.199C746.177 257.199 961.391 271.471 961.391 289.077Z" fill="#D3DDE6"/>
<path d="M150.364 86.5008L162.441 79.0049C165.031 86.2014 167.19 93.539 168.911 100.968C168.436 102.143 167.536 103.924 165.839 105.661C163.477 108.079 160.828 109.122 159.451 109.561C157.653 106.348 155.8 102.59 150.364 86.5008Z" fill="#E87578"/>
<path d="M159.451 109.56L168.911 100.968C168.93 101.048 168.952 101.128 168.97 101.208C180.532 100.8 192.095 100.391 203.658 99.9818C207.779 99.8359 211.831 99.5556 215.935 99.8121C216.331 99.8369 216.811 99.917 216.95 100.272C217.041 100.504 216.941 100.761 216.926 101.009C216.899 101.478 217.195 101.92 217.58 102.213C219.214 103.458 221.37 104.306 223.195 105.283C224.218 105.83 231.953 109.95 229.578 111.449C229.118 111.74 228.514 111.434 228.055 111.142C226.627 110.233 225.143 109.403 223.614 108.658C222.878 108.3 222.119 107.893 221.34 107.627C220.9 107.477 220.064 107.653 220.583 108.267C220.725 108.435 220.94 108.528 221.147 108.617C224.249 109.965 227.085 111.867 229.463 114.195C229.72 114.446 229.978 114.713 230.099 115.044C230.22 115.376 230.167 115.79 229.878 116.008C229.425 116.351 228.77 116.034 228.297 115.717C226.261 114.356 224.225 112.993 222.189 111.631C221.659 111.277 221.084 110.913 220.455 110.743C220.213 110.678 219.59 110.521 219.366 110.653C218.783 110.997 219.96 111.557 220.29 111.813C221.57 112.802 222.773 113.883 223.884 115.042C224.548 115.735 225.223 116.608 225.009 117.524C224.954 117.762 224.816 118.006 224.575 118.087C224.146 118.232 223.765 117.801 223.517 117.437C222.763 116.327 221.859 115.307 220.817 114.433C220.159 113.881 219.493 113.21 218.689 112.853C217.194 112.188 218.303 113.594 218.682 114.142C219.617 115.494 220.595 117.033 220.275 118.624C220.204 118.977 219.911 119.397 219.557 119.273C219.366 119.206 219.272 119.005 219.195 118.825C217.96 115.937 215.916 113.385 213.388 111.415C212.23 110.512 210.853 109.489 209.423 109.034C207.757 108.504 205.868 108.773 204.171 108.988C198.902 109.657 193.617 110.325 188.446 111.524C186.125 112.061 183.583 112.185 181.192 112.465C178.485 112.781 175.761 113 173.032 112.969C168.433 112.918 163.766 112.131 159.715 110.055C159.625 109.891 159.541 109.724 159.451 109.56Z" fill="#E87578"/>
<path d="M109.074 71.999L121.9 78.2629C116.64 83.9842 111.037 89.4185 105.133 94.5363C103.828 94.7279 101.76 94.8691 99.3363 94.3284C95.9623 93.576 93.6953 91.9044 92.6113 90.9824C94.6403 87.8976 97.1383 84.4963 109.074 71.999Z" fill="#E87578"/>
<path d="M120.032 186.966C121.196 188.562 121.05 190.816 120.003 192.483C118.956 194.151 117.145 195.283 115.224 195.936C109.373 197.925 102.942 195.833 97.1808 193.618C95.1458 192.836 92.9718 191.918 91.8878 190.099C90.7698 188.224 91.1568 185.741 92.5148 184.016C93.8728 182.291 96.0518 181.272 98.2808 180.906C100.51 180.539 102.8 180.767 105.026 181.152" fill="#381905"/>
<path d="M160.57 174.971C161.687 176.016 162.821 177.122 163.361 178.523C163.901 179.923 163.68 181.704 162.435 182.608C161.525 183.269 160.272 183.345 159.323 183.954C158.258 184.639 157.759 185.861 157.227 186.976C156.082 189.376 154.493 191.622 152.35 193.288C150.207 194.955 147.479 196.01 144.715 195.919C143.06 195.865 141.452 195.412 139.864 194.963C138.603 194.606 137.289 194.22 136.345 193.348C134.933 192.041 134.692 189.997 134.534 188.127C134.501 187.736 134.513 187.257 134.87 187.062C135.183 186.891 135.57 187.046 135.928 187.082C137.134 187.198 137.932 185.969 138.534 184.966C140.752 181.262 144.414 178.366 148.642 176.974C151.744 175.953 155.062 175.73 158.336 175.514" fill="#381905"/>
<path d="M72.5542 267.092C71.3842 269.169 71.0022 271.985 69.2362 273.724C68.1942 274.75 66.6382 275.447 66.2322 276.822C65.7832 278.342 66.8712 279.692 66.9662 281.165C67.0452 282.385 65.7482 283.576 66.6222 284.708C66.9492 285.131 67.4702 285.315 67.8132 285.694C67.9112 285.685 69.0092 287.338 69.2132 287.508C69.7992 287.997 70.7362 288.539 71.5542 288.332C73.1702 287.922 73.7862 284.977 74.3522 283.695C76.0832 279.771 77.8152 275.847 79.5462 271.922C80.1382 270.581 80.7422 269.146 80.4822 267.713C80.0552 265.36 76.9342 263.868 74.7002 264.95C73.7182 265.426 73.0622 266.19 72.5542 267.092Z" fill="#E87578"/>
<path d="M114.766 204.423C115.347 201.257 115.845 198.063 116.416 194.87C116.897 192.183 117.374 189.397 116.642 186.762C115.191 181.532 108.05 179.126 103.13 178.192C98.4352 177.301 92.2812 177.823 91.6732 183.435C91.5002 185.031 91.7742 186.638 92.0472 188.222C92.8142 192.669 94.7422 198.123 94.1972 202.608C93.7022 206.677 92.8872 211.136 91.0142 214.86C89.2372 218.392 86.0432 220.477 84.0432 223.755C79.4262 231.322 76.2142 239.74 74.4882 248.331C73.8402 251.555 73.5982 254.832 73.1882 258.087C72.7772 261.347 72.7382 264.664 72.5582 267.942C72.5042 268.919 72.4582 269.937 72.8672 270.835C73.4932 272.209 77.3652 273.509 78.7302 272.727C79.3022 272.4 79.7012 271.863 80.0772 271.338C82.9392 267.337 85.2622 263.073 87.5032 258.736C90.3342 253.257 93.3282 247.855 96.4762 242.536C100.728 235.355 106.245 228.861 109.808 221.311C112.371 215.888 113.707 210.201 114.766 204.423Z" fill="#E87578"/>
<path d="M64.4173 276.086C65.5903 275.203 66.8803 274.443 68.2913 273.973C68.6593 273.85 69.1403 273.778 69.3773 274.073C69.5943 274.342 69.4473 274.731 69.2793 275.033C69.0023 275.53 68.6823 276.011 68.5043 276.548C68.3253 277.085 68.3043 277.701 68.6093 278.182C69.0013 278.801 69.8023 279.041 70.5333 279.231C71.3493 279.444 72.1643 279.657 72.9803 279.869C73.5613 280.021 74.1673 280.184 74.6133 280.571C75.0913 280.985 75.3253 281.64 75.2123 282.245C74.8423 284.237 75.5213 286.2 75.6403 288.219C75.7323 289.771 75.8243 291.326 75.7723 292.88C75.7423 293.783 75.6603 294.695 75.3683 295.554C75.0763 296.413 74.5563 297.226 73.7853 297.75C73.3763 298.029 72.9753 297.523 72.5853 297.222C70.6943 295.758 69.2913 293.81 67.9833 291.851C66.9313 290.272 65.9173 288.658 65.2123 286.914C64.5073 285.17 64.1203 283.277 64.3603 281.422C64.5853 279.699 64.6743 277.805 64.4173 276.086Z" fill="#381905"/>
<path d="M71.4407 279.812C71.3487 279.22 71.7987 278.643 72.3657 278.386C72.9337 278.13 73.5897 278.131 74.2147 278.183C75.6217 278.301 76.9937 278.655 78.3577 279.008C78.7077 279.098 79.0657 279.192 79.3657 279.388C79.6657 279.585 79.9007 279.905 79.8857 280.251C79.8597 280.855 79.1587 281.198 78.8307 281.715C78.6107 282.06 78.5647 282.477 78.5227 282.878C78.0877 287.108 77.7277 291.286 78.1527 295.534C78.2107 296.117 78.2767 296.729 78.0377 297.268C77.4707 297.168 76.8647 297.34 76.3077 297.481C75.7507 297.621 75.1177 297.7 74.6317 297.407C74.2597 297.182 74.0467 296.777 73.9317 296.371C73.7067 295.578 73.7897 294.741 73.8197 293.919C73.8977 291.799 73.6107 289.667 72.9707 287.635" fill="#381905"/>
<path d="M65.5743 275.301C64.8633 275.7 64.5843 276.579 64.6683 277.361C64.7523 278.144 65.1273 278.867 65.4553 279.589C66.8483 282.662 67.4573 286.002 68.5683 289.178C69.6793 292.354 71.4343 295.516 74.4133 297.29C75.5653 296.633 76.9013 296.627 78.1243 297.155C78.9123 298.206 79.4403 299.441 79.6553 300.716C79.8403 300.778 79.9833 301.052 80.0123 301.236C80.0413 301.421 79.9963 301.609 79.9393 301.789C79.7443 302.407 79.3973 303.001 78.8623 303.397C78.3273 303.794 77.5863 303.968 76.9493 303.748C72.9273 302.361 69.8173 299.187 67.4153 295.813C66.1843 294.083 65.5993 292.303 65.0973 290.268C64.5943 288.233 64.2313 286.155 63.4473 284.202C62.8263 282.655 61.9373 281.167 61.7543 279.518C61.6813 278.856 61.7313 278.162 62.0363 277.563C62.6283 276.401 64.3093 275.764 65.5743 275.301Z" fill="white"/>
<path d="M68.6116 294.737C67.4606 293.136 66.7476 291.161 66.2856 289.275C65.8106 287.333 65.4866 285.353 64.8346 283.458C64.4296 282.282 63.9006 281.145 63.5776 279.946C63.2556 278.747 63.1516 277.451 63.5986 276.29C63.2776 276.461 63.0056 277.053 62.8946 277.387C62.6286 278.179 62.7276 279.046 62.9726 279.844C63.2176 280.642 63.6016 281.394 63.9176 282.17C64.7796 284.29 65.1176 286.565 65.6166 288.788C66.1116 290.995 66.8026 293.226 68.2336 295.022C68.3586 294.925 68.4846 294.83 68.6116 294.737Z" fill="#381905"/>
<path d="M74.5879 294.512C74.5159 294.333 74.4009 294.164 74.2349 294.055C73.7959 293.768 73.1909 294.109 73.3339 294.612C73.4479 295.013 73.9239 295.665 74.4279 295.34C74.5599 295.256 74.6389 295.109 74.6589 294.958C74.6779 294.807 74.6449 294.653 74.5879 294.512ZM74.4289 294.739C74.4149 294.896 74.2779 295.035 74.1139 295.057C73.9509 295.079 73.7789 294.981 73.7209 294.833L73.7669 294.838C73.6969 294.727 73.7129 294.573 73.8019 294.475C73.8909 294.377 74.0429 294.338 74.1729 294.377C74.3299 294.423 74.4429 294.583 74.4289 294.739Z" fill="white"/>
<path d="M73.9727 294.069C74.8187 293.957 75.6747 293.918 76.5287 293.953C76.8827 293.967 77.2446 293.997 77.5706 294.132C77.8956 294.268 78.1837 294.527 78.2567 294.858C78.2747 294.938 78.2757 295.032 78.2157 295.092C78.1397 295.166 78.0117 295.148 77.9057 295.124C76.7317 294.871 75.5117 294.807 74.3157 294.936C74.4777 294.924 74.5596 294.871 74.5686 294.717C74.5776 294.562 74.4916 294.414 74.3746 294.307C74.2566 294.2 74.1167 294.141 73.9727 294.069Z" fill="white"/>
<path d="M74.4443 292.142C74.3723 291.963 74.2573 291.794 74.0913 291.685C73.6523 291.398 73.0473 291.739 73.1903 292.242C73.3043 292.643 73.7813 293.295 74.2843 292.97C74.4163 292.885 74.4953 292.738 74.5153 292.588C74.5353 292.437 74.5013 292.283 74.4443 292.142ZM74.2863 292.368C74.2733 292.525 74.1353 292.664 73.9723 292.685C73.8093 292.707 73.6363 292.609 73.5793 292.461L73.6253 292.466C73.5553 292.355 73.5713 292.201 73.6603 292.103C73.7493 292.005 73.9013 291.966 74.0313 292.005C74.1873 292.053 74.2993 292.212 74.2863 292.368Z" fill="white"/>
<path d="M73.8291 291.697C75.1181 291.525 76.4431 291.45 77.6081 292.099C77.7511 292.179 77.8911 292.269 77.9971 292.39C78.1031 292.512 78.1731 292.669 78.1581 292.826C78.1651 292.755 76.4451 292.549 76.3261 292.539C75.6091 292.479 74.8861 292.488 74.1711 292.564C74.3331 292.552 74.4151 292.5 74.4241 292.345C74.4331 292.19 74.3471 292.041 74.2301 291.934C74.1131 291.826 73.9731 291.768 73.8291 291.697Z" fill="white"/>
<path d="M74.409 289.936C74.392 289.745 74.332 289.552 74.205 289.403C73.868 289.01 73.187 289.175 73.176 289.696C73.167 290.111 73.433 290.864 74.011 290.688C74.163 290.643 74.282 290.522 74.345 290.383C74.409 290.244 74.422 290.088 74.409 289.936ZM74.19 290.111C74.131 290.258 73.958 290.354 73.795 290.332C73.632 290.309 73.496 290.168 73.484 290.011L73.526 290.028C73.491 289.902 73.552 289.76 73.666 289.689C73.78 289.619 73.938 289.623 74.051 289.695C74.188 289.783 74.249 289.965 74.19 290.111Z" fill="white"/>
<path d="M73.9492 289.345C74.0702 289.455 74.6392 289.457 74.8162 289.493C75.0942 289.549 75.3902 289.596 75.6562 289.692C76.1202 289.859 76.6302 289.821 77.1052 289.988C77.5312 290.139 77.9232 290.415 78.1232 290.803C78.1862 290.925 78.2202 291.092 78.1132 291.181C78.0002 291.277 77.8252 291.213 77.6902 291.15C77.1112 290.879 76.4922 290.687 75.8572 290.58C75.5572 290.529 75.2452 290.532 74.9482 290.477C74.6402 290.419 74.3312 290.328 74.0222 290.268C74.1812 290.299 74.2752 290.272 74.3292 290.126C74.3832 289.98 74.3442 289.814 74.2632 289.679C74.1832 289.546 74.0662 289.452 73.9492 289.345Z" fill="white"/>
<path d="M74.3201 287.44C74.3031 287.248 74.2431 287.055 74.1161 286.907C73.7791 286.514 73.0981 286.678 73.0871 287.199C73.0781 287.615 73.3441 288.368 73.9221 288.192C74.0741 288.146 74.1931 288.026 74.2571 287.887C74.3211 287.747 74.3341 287.591 74.3201 287.44ZM74.1011 287.615C74.0421 287.762 73.8691 287.858 73.7061 287.835C73.5431 287.812 73.4071 287.672 73.3951 287.514L73.4371 287.532C73.4021 287.407 73.4631 287.263 73.5771 287.194C73.6911 287.123 73.8491 287.127 73.9621 287.199C74.1001 287.285 74.1611 287.468 74.1011 287.615Z" fill="white"/>
<path d="M73.8604 286.849C74.1774 287.138 75.6913 287.234 76.1653 287.365C77.0063 287.598 78.1524 287.871 78.1944 288.88C78.1984 288.971 78.1764 289.085 78.0854 289.114C78.0104 289.139 77.9324 289.09 77.8674 289.047C77.2554 288.631 76.6303 288.503 75.9283 288.31C75.2623 288.127 74.6224 287.909 73.9344 287.774C74.0934 287.805 74.1873 287.777 74.2413 287.631C74.2953 287.486 74.2564 287.32 74.1754 287.186C74.0954 287.05 73.9784 286.955 73.8604 286.849Z" fill="white"/>
<path d="M74.034 284.782C74.017 284.59 73.957 284.398 73.83 284.249C73.493 283.856 72.812 284.021 72.801 284.542C72.793 284.957 73.058 285.71 73.636 285.534C73.788 285.487 73.907 285.368 73.971 285.229C74.034 285.089 74.047 284.933 74.034 284.782ZM73.815 284.957C73.756 285.104 73.583 285.2 73.42 285.177C73.257 285.154 73.121 285.014 73.109 284.858L73.151 284.875C73.116 284.75 73.177 284.607 73.291 284.536C73.405 284.465 73.563 284.469 73.676 284.541C73.813 284.628 73.874 284.81 73.815 284.957Z" fill="white"/>
<path d="M73.5742 284.192C74.4192 284.311 75.2532 284.503 76.0612 284.765C76.9472 285.053 78.0772 285.487 78.3382 286.445C78.3542 286.504 78.3652 286.571 78.3332 286.623C78.2612 286.74 78.0742 286.681 77.9522 286.612C77.2692 286.229 76.5322 285.934 75.7672 285.735C75.0512 285.55 74.3922 285.238 73.6472 285.115C73.8062 285.147 73.9002 285.119 73.9542 284.973C74.0082 284.827 73.9692 284.662 73.8882 284.527C73.8082 284.394 73.6912 284.3 73.5742 284.192Z" fill="white"/>
<path d="M73.8787 282.295C73.8617 282.103 73.8017 281.91 73.6747 281.761C73.3377 281.368 72.6567 281.533 72.6457 282.054C72.6367 282.47 72.9027 283.222 73.4807 283.047C73.6327 283.001 73.7517 282.881 73.8147 282.741C73.8787 282.602 73.8917 282.447 73.8787 282.295ZM73.6597 282.47C73.6007 282.617 73.4277 282.714 73.2647 282.691C73.1017 282.668 72.9657 282.528 72.9537 282.37L72.9957 282.387C72.9607 282.261 73.0217 282.119 73.1357 282.049C73.2497 281.978 73.4077 281.982 73.5207 282.053C73.6577 282.141 73.7187 282.324 73.6597 282.47Z" fill="white"/>
<path d="M73.418 281.704C74.263 281.822 75.097 282.015 75.905 282.278C76.521 282.478 77.168 282.64 77.717 282.985C78.2 283.289 78.621 283.548 78.746 284.125C78.771 284.24 78.769 284.385 78.662 284.442C78.554 284.501 78.422 284.426 78.322 284.356C77.608 283.86 76.81 283.475 75.97 283.215C75.549 283.084 75.119 282.988 74.683 282.92C74.284 282.859 73.895 282.706 73.491 282.627C73.65 282.659 73.744 282.631 73.798 282.485C73.852 282.339 73.813 282.173 73.732 282.039C73.653 281.905 73.536 281.811 73.418 281.704Z" fill="white"/>
<path d="M73.1557 295.941C72.0637 290.823 71.7417 285.529 71.4307 280.408L71.5967 280.398C71.9077 285.513 72.2287 290.802 73.3187 295.909L73.1557 295.941Z" fill="white"/>
<path d="M133.065 183.723L150.962 167.562C160.77 181.283 168.792 193.967 175.545 209.187C175.663 209.435 175.793 209.724 175.971 210.12C180.691 220.604 183.269 232.803 186.374 243.771C188.043 249.668 189.885 255.52 191.899 261.319C193.405 265.656 194.998 269.989 196.057 274.45C196.178 274.96 196.292 275.472 196.398 275.986C196.963 278.72 197.257 284.512 192.308 282.656C190.644 282.033 189.507 280.582 188.461 279.2C184.119 273.467 179.265 268.329 174.969 262.612C170.75 256.996 167.624 250.375 165.314 243.855C163.147 237.741 163.197 231.565 159.656 225.699C157.288 221.777 154.057 218.66 151.277 215.052C149.043 212.154 147.661 208.806 145.771 205.639C144.719 203.876 132.445 184.283 133.065 183.723Z" fill="#E87578"/>
<path d="M144.235 149.637C145.309 151.529 146.171 153.965 147.613 155.563C149.131 157.245 152.58 158.184 152.53 160.833C152.517 161.51 152.222 162.158 152.186 162.835C152.111 164.264 153.174 165.491 154.18 166.551C155.5 167.942 165.347 178.725 161.993 180.321C161.194 180.701 160.247 180.391 159.377 180.197C155.469 179.321 151.475 180.946 147.822 182.534C145.213 183.668 142.536 184.847 140.562 186.83C138.588 188.811 137.459 191.814 138.549 194.342C136.503 192.589 134.674 190.607 133.112 188.448C131.058 185.607 129.492 182.492 127.803 179.451C126.931 177.883 124.719 172.515 122.624 172.066C121.353 171.793 121.658 176.263 121.877 176.791C122.867 179.169 122.731 180.204 121.946 182.548C121.311 184.442 122.19 186.179 121.873 188.122C121.586 189.883 120.231 191.62 118.371 191.798C118.435 192.236 118.498 192.693 118.36 193.117C118.223 193.54 117.825 193.921 117.36 193.902C116.825 193.88 116.474 193.387 116.14 192.989C114.84 191.436 112.128 190.654 110.156 190.207C104.115 188.837 97.5976 187.806 91.4176 188.913C91.4176 188.913 90.3206 184.177 89.5356 180.528C88.7506 176.878 82.5026 156.997 101.304 132.05C120.075 107.146 144.152 149.491 144.235 149.637Z" fill="#381905"/>
<path d="M156.881 58.5939C156.975 57.6528 159.961 55.3995 158.454 54.1542C158.058 53.8271 144.381 43.2379 140.754 43.1282C137.128 43.0186 136.474 44.2 135.17 44.7941C133.866 45.3882 134.574 49.231 133.588 49.1413C132.601 49.0517 117.007 56.6372 117.32 57.7243C117.633 58.8113 119.856 58.593 118.359 59.2061C116.862 59.8192 112.815 61.24 113.041 62.4291C113.267 63.6182 114.279 65.7542 114.279 65.7542C112.829 65.8962 110.623 65.368 110.992 66.0765C111.361 66.7849 104.658 72.5663 104.478 73.6095C104.298 74.6527 117.065 86.1612 117.675 86.3805C118.285 86.5998 98.2258 130.674 98.2168 134.215C98.2078 137.756 128.9 150.582 146.445 152.028C146.445 152.028 151.506 150.041 150.915 146.372C150.324 142.704 148.314 136.753 150.376 134.129C152.438 131.505 155.807 126.517 156.123 122.2C156.418 118.162 161.139 89.4118 161.749 85.7082C160.531 77.418 159.45 69.1278 159.195 60.8376C157.78 59.6667 156.858 58.8171 156.881 58.5939Z" fill="#008FC1"/>
<path d="M166.143 84.3883C165.759 83.2593 163.1 82.1046 164.012 80.8487C164.925 79.5929 165.882 78.748 165.861 77.7506C165.845 76.9897 160.51 66.4873 158.209 61.1836C154.552 68.7081 151.633 76.5854 148.837 84.5199C148.995 84.3092 149.082 84.1919 149.082 84.1919L149.616 89.9304C149.616 89.9304 159.525 83.7895 164.023 86.5968C164.023 86.5968 166.527 85.5164 166.143 84.3883Z" fill="#008FC1"/>
<path d="M138.344 48.5418C137.903 49.2951 137.435 50.098 137.487 50.959C137.549 51.987 138.328 52.829 139.066 53.5804C143.58 58.1832 148.095 62.7869 152.609 67.3897C153.872 66.153 154.853 64.6559 155.466 63.031C155.664 62.5056 155.826 61.9421 155.718 61.3928C155.459 60.0693 153.876 59.479 152.815 58.5913C151.849 57.7827 151.252 56.5869 151.203 55.3625C151.14 53.7978 151.956 52.4046 152.68 51.0553C153.505 49.5182 154.33 47.9811 155.155 46.4449C156.334 44.2489 155.723 42.5925 153.873 40.9801C151.806 39.1788 148.376 37.0381 145.443 37.102C144.337 37.1258 143.715 37.7695 143.252 38.6725C142.469 40.201 141.875 41.8278 141.118 43.3716C140.26 45.1252 139.334 46.8511 138.344 48.5418Z" fill="#E87578"/>
<path d="M153.875 40.9788C152.08 39.414 149.257 37.5946 146.624 37.1846C146.64 37.6928 146.676 38.1992 146.725 38.6988C146.913 40.6021 147.242 42.4997 147.774 44.3439C148.624 47.2903 149.986 50.1529 151.855 52.6503C152.106 52.1067 152.401 51.5775 152.681 51.055C153.506 49.5178 154.331 47.9807 155.156 46.4445C156.336 44.2475 155.725 42.5912 153.875 40.9788Z" fill="#381905"/>
<path d="M168.728 29.7522C168.532 30.6857 168.205 31.6069 167.769 32.5004C167.502 33.0477 167.187 33.596 167.146 34.1977C167.071 35.3076 167.897 36.1925 168.393 37.1222C168.861 38.0005 169.329 39.1419 169.611 40.0897C169.806 40.7448 169.565 41.7041 168.775 41.8709C168.572 41.9138 168.355 41.8995 168.162 41.9739C167.273 42.3134 167.291 43.8181 167.132 44.5285C167.082 44.7516 167.016 44.9976 166.815 45.1206C166.613 45.2446 166.33 45.2303 166.182 45.4401C166.034 45.6489 166.11 45.9435 166.121 46.1838C166.132 46.4356 166.136 46.7121 165.973 46.9105C165.84 47.0716 165.625 47.146 165.444 47.2575C164.473 47.8564 163.914 49.4126 163.001 50.1954C162.133 50.9402 161.004 51.4742 159.838 51.4217C158.7 51.3693 157.677 50.78 156.709 50.2078C153.551 48.3398 150.266 46.3498 148.413 43.2774C147.308 41.4447 146.794 39.3497 145.918 37.4083C144.983 35.3362 143.641 33.4549 142.61 31.4247C141.565 29.3679 141.016 27.2434 141.199 24.9549C141.364 22.8828 142.685 20.6343 144.029 19.0247C145.806 16.8964 148.429 15.323 151.274 15.14C152.849 15.0389 154.423 15.3564 155.932 15.7989C159.562 16.8621 162.799 18.6624 165.712 20.9623C166.77 21.7977 167.573 22.9076 168.129 24.0995C168.985 25.937 169.124 27.868 168.728 29.7522Z" fill="#E87578"/>
<path d="M139.515 37.4766C139.562 37.5128 139.608 37.5481 139.655 37.5844C140.607 38.3119 141.63 39.028 142.825 39.2626C145.389 39.7642 147.835 37.2811 149.498 35.7945C152.716 32.9167 155.934 30.0389 159.152 27.1601C160.373 26.0683 161.624 24.9574 163.153 24.308C164.682 23.6596 166.567 23.549 167.962 24.431C168.815 23.5166 168.423 22.0395 167.647 21.065C166.87 20.0914 165.761 19.3963 164.979 18.4265C164.23 17.4978 163.815 16.3592 163.087 15.4161C161.281 13.0771 157.989 12.3896 154.992 11.8718C152.158 11.3817 149.2 10.8963 146.438 11.6744C143.286 12.5622 140.887 14.9489 138.645 17.2403C134.34 21.64 130.537 26.4755 134.397 32.315C135.727 34.327 137.573 35.9814 139.515 37.4766Z" fill="#381905"/>
<path d="M139.892 18.9217C135.155 20.0726 129.735 17.4465 127.916 13.1193C126.098 8.79207 128.116 3.3244 132.376 1.03682C134.483 -0.0940932 137.208 -0.443094 139.297 0.718335C141.386 1.87976 142.365 4.81289 140.891 6.6399C142.282 5.4718 144.574 5.59767 145.993 6.7343C147.412 7.87094 147.964 9.81238 147.615 11.5478C147.266 13.2833 146.115 14.808 144.673 15.917" fill="#381905"/>
<path d="M150.232 36.524C148.994 35.5543 148.055 34.2403 147.563 32.7861C147.288 31.9746 147.161 31.0487 147.586 30.2973C148.129 29.3361 149.502 28.9681 150.573 29.3542C151.644 29.7395 152.388 30.7407 152.63 31.8087C152.872 32.8757 152.67 33.9971 152.285 35.025" fill="#E87578"/>
<path d="M166.816 30.5897C166.449 30.2512 165.964 30.05 165.47 29.9251C163.816 29.5093 161.954 29.948 160.694 31.0512C160.504 31.2172 160.321 31.5004 160.492 31.6834C160.616 31.816 160.835 31.7874 161.019 31.7588C162.447 31.5356 163.851 31.9638 165.262 32.103C166.435 32.2203 168.353 32.0048 166.816 30.5897Z" fill="#381905"/>
<path d="M149.938 34.7924C149.864 34.7924 149.793 34.7543 149.756 34.6875C149.588 34.3843 149.695 33.9838 149.993 33.7941C150.193 33.6653 150.455 33.651 150.674 33.7378C150.783 33.2372 150.622 32.6813 150.245 32.3161C150.111 32.1864 149.98 32.112 149.856 32.0948C149.729 32.0834 149.612 32.1311 149.575 32.2093C149.529 32.3084 149.406 32.3542 149.303 32.3103C149.198 32.2665 149.151 32.1501 149.197 32.051C149.309 31.8088 149.615 31.6591 149.913 31.7058C150.129 31.7353 150.34 31.8469 150.538 32.0405C151.09 32.5735 151.272 33.4327 150.979 34.1278C150.952 34.1927 150.89 34.2384 150.818 34.2499C150.749 34.2613 150.674 34.2337 150.627 34.1803C150.537 34.0744 150.343 34.0448 150.22 34.1221C150.099 34.1993 150.051 34.3805 150.118 34.5026C150.171 34.5989 150.133 34.7181 150.033 34.7686C150.004 34.7848 149.971 34.7924 149.938 34.7924Z" fill="#381905"/>
<path d="M150.929 65.272C150.485 64.7609 150.065 64.2784 149.705 63.8064C148.296 61.9556 146.367 60.8352 144.414 60.7322C143.749 60.7017 143.062 60.7789 142.403 60.8571C141.274 60.9906 140.206 61.1174 139.24 60.6997C138.119 60.2144 137.45 59.1025 136.943 58.0775C135.619 55.4008 134.545 51.0202 134.183 47.2852C134.08 47.5808 133.974 47.8764 133.865 48.17C134.303 51.7497 135.329 55.7365 136.569 58.2453C137.108 59.3343 137.826 60.5205 139.069 61.0583C140.139 61.5217 141.316 61.3835 142.454 61.2481C143.096 61.1718 143.762 61.0907 144.392 61.127C146.22 61.2233 148.035 62.2846 149.372 64.0391C149.739 64.5206 150.163 65.0079 150.612 65.5247C151.65 66.7205 152.725 67.9553 153.188 69.2341C153.218 69.3151 153.298 69.3666 153.383 69.3666C153.406 69.3666 153.428 69.3637 153.451 69.3561C153.558 69.3208 153.616 69.2083 153.579 69.1053C153.089 67.758 151.992 66.4945 150.929 65.272Z" fill="#381905"/>
<path d="M201 285.668C199.618 284.342 198.694 282.637 198.016 280.9C197.163 278.715 196.653 276.42 195.801 274.235C195.163 272.598 193.515 271.492 191.656 271.727C190.476 271.875 189.4 272.429 188.356 272.975C187.413 273.468 186.339 274.174 186.392 275.199C186.416 275.653 186.671 276.063 186.919 276.452C189.466 280.444 193.078 284.649 194.287 289.232C194.541 290.194 194.418 291.403 194.91 292.29C195.126 292.68 195.58 292.908 196.036 292.978C196.581 293.061 197.087 292.843 197.612 292.884C198.301 292.937 198.882 293.291 199.613 293.261C201.221 293.192 202.62 291.924 203.003 290.433C203.504 288.483 202.359 286.968 201 285.668Z" fill="#E87578"/>
<path d="M190.944 291.391C190.666 289.99 190.558 288.548 190.776 287.138C190.833 286.77 190.987 286.329 191.372 286.266C191.724 286.208 192.017 286.512 192.219 286.793C192.552 287.258 192.852 287.751 193.268 288.15C193.684 288.55 194.247 288.853 194.836 288.819C195.593 288.775 196.186 288.209 196.702 287.678C197.278 287.087 197.853 286.497 198.428 285.907C198.838 285.485 199.271 285.05 199.837 284.852C200.443 284.64 201.16 284.745 201.671 285.122C203.35 286.358 205.489 286.693 207.421 287.528C208.906 288.169 210.394 288.812 211.814 289.577C212.639 290.021 213.448 290.512 214.112 291.157C214.775 291.802 215.289 292.617 215.42 293.512C215.489 293.986 214.834 294.092 214.373 294.282C209.315 296.363 204.063 294.771 198.793 294.049C197.695 293.898 191.24 292.883 190.944 291.391Z" fill="#381905"/>
<path d="M197.66 287.181C197.067 286.984 196.739 286.337 196.764 285.738C196.789 285.139 197.094 284.586 197.432 284.081C198.194 282.948 199.159 281.952 200.118 280.963C200.365 280.709 200.618 280.45 200.939 280.288C201.26 280.126 201.667 280.076 201.982 280.249C202.531 280.55 202.525 281.302 202.853 281.819C203.072 282.165 203.438 282.397 203.792 282.618C207.521 284.945 211.237 287.185 215.382 288.795C215.951 289.016 216.55 289.244 216.94 289.696C216.585 290.129 216.464 290.721 216.337 291.257C216.209 291.793 215.989 292.364 215.491 292.639C215.109 292.849 214.635 292.842 214.205 292.751C213.364 292.574 212.623 292.115 211.874 291.709C209.94 290.66 207.826 289.915 205.641 289.514" fill="#381905"/>
<path d="M190.767 290.242C190.809 290.236 190.859 290.242 190.921 290.263C191.05 290.309 191.147 290.41 191.244 290.503C192.183 291.395 193.546 291.765 194.868 291.863C196.19 291.96 197.519 291.821 198.844 291.86C201.833 291.949 204.709 292.948 207.677 293.297C208.97 293.448 210.278 293.476 211.576 293.379C212.817 293.286 214.05 292.87 215.267 292.8C215.305 292.145 215.355 291.552 215.67 290.951C215.847 290.612 216.433 289.631 216.874 289.572C217.569 289.48 218.276 289.469 218.975 289.537C219.537 289.591 220.367 289.625 220.779 290.005C221.675 290.831 222.185 292.174 222.301 293.331C222.336 293.681 222.33 294.06 222.117 294.347C221.941 294.582 221.655 294.714 221.38 294.837C219.814 295.537 218.269 296.353 216.582 296.708C214.735 297.097 212.824 297.388 210.935 297.109C209.232 296.856 207.64 296.154 205.963 295.777C202.534 295.008 198.946 295.64 195.427 295.474C194.433 295.427 193.423 295.31 192.521 294.908C191.549 294.475 190.897 293.72 190.697 292.711C190.603 292.235 190.602 291.746 190.63 291.265C190.643 291.018 190.466 290.292 190.767 290.242Z" fill="white"/>
<path d="M212.78 291.334C212.58 291.313 212.37 291.332 212.192 291.421C211.722 291.66 211.758 292.329 212.292 292.441C212.717 292.53 213.544 292.428 213.476 291.853C213.458 291.703 213.357 291.568 213.227 291.48C213.096 291.395 212.938 291.352 212.78 291.334ZM212.917 291.574C213.056 291.658 213.123 291.839 213.067 291.987C213.011 292.135 212.839 292.235 212.676 292.216L212.702 292.179C212.566 292.187 212.432 292.102 212.382 291.982C212.332 291.862 212.368 291.715 212.464 291.622C212.579 291.511 212.777 291.489 212.917 291.574Z" fill="white"/>
<path d="M212.084 291.646C212.371 290.88 212.732 290.137 213.16 289.433C213.338 289.141 213.533 288.849 213.809 288.636C214.085 288.424 214.459 288.301 214.801 288.393C214.884 288.415 214.972 288.458 215 288.536C215.034 288.634 214.958 288.733 214.887 288.813C214.107 289.688 213.483 290.688 213.048 291.759C213.111 291.616 213.102 291.522 212.962 291.443C212.822 291.364 212.645 291.368 212.491 291.418C212.336 291.466 212.217 291.558 212.084 291.646Z" fill="white"/>
<path d="M210.509 290.358C210.309 290.336 210.099 290.355 209.921 290.445C209.452 290.683 209.488 291.353 210.021 291.464C210.446 291.554 211.272 291.453 211.204 290.877C211.186 290.726 211.086 290.591 210.955 290.504C210.825 290.418 210.667 290.375 210.509 290.358ZM210.646 290.596C210.785 290.68 210.851 290.861 210.795 291.009C210.739 291.157 210.568 291.257 210.405 291.238L210.431 291.202C210.296 291.209 210.161 291.125 210.111 291.004C210.061 290.884 210.096 290.737 210.192 290.646C210.308 290.534 210.507 290.512 210.646 290.596Z" fill="white"/>
<path d="M209.812 290.67C210.25 289.501 210.794 288.347 211.937 287.664C212.077 287.58 212.226 287.503 212.388 287.469C212.55 287.436 212.728 287.449 212.867 287.535C212.804 287.496 211.816 288.854 211.751 288.95C211.363 289.528 211.036 290.143 210.776 290.783C210.839 290.64 210.829 290.546 210.69 290.467C210.55 290.388 210.372 290.392 210.219 290.441C210.065 290.49 209.945 290.58 209.812 290.67Z" fill="white"/>
<path d="M208.443 289.363C208.257 289.288 208.05 289.25 207.853 289.288C207.332 289.391 207.169 290.044 207.649 290.294C208.03 290.493 208.853 290.618 208.957 290.048C208.984 289.899 208.928 289.742 208.828 289.623C208.729 289.506 208.59 289.422 208.443 289.363ZM208.505 289.629C208.614 289.747 208.623 289.938 208.526 290.065C208.429 290.191 208.235 290.242 208.084 290.179L208.119 290.151C207.987 290.123 207.882 290.006 207.87 289.876C207.858 289.747 207.934 289.616 208.053 289.553C208.198 289.478 208.396 289.512 208.505 289.629Z" fill="white"/>
<path d="M207.682 289.479C207.84 289.427 208.106 288.947 208.221 288.815C208.402 288.606 208.583 288.377 208.795 288.197C209.165 287.881 209.366 287.433 209.742 287.11C210.079 286.82 210.517 286.616 210.971 286.627C211.114 286.631 211.285 286.679 211.319 286.811C211.355 286.951 211.215 287.069 211.094 287.154C210.574 287.518 210.109 287.952 209.715 288.438C209.529 288.668 209.387 288.933 209.198 289.158C209.002 289.392 208.774 289.61 208.574 289.844C208.677 289.724 208.695 289.631 208.584 289.518C208.473 289.404 208.301 289.36 208.139 289.366C207.977 289.374 207.836 289.429 207.682 289.479Z" fill="white"/>
<path d="M206.083 288.282C205.898 288.207 205.69 288.169 205.493 288.207C204.972 288.31 204.81 288.963 205.289 289.212C205.67 289.412 206.493 289.537 206.597 288.966C206.624 288.817 206.568 288.66 206.468 288.542C206.369 288.424 206.23 288.341 206.083 288.282ZM206.144 288.548C206.253 288.666 206.262 288.857 206.165 288.984C206.068 289.11 205.874 289.161 205.723 289.098L205.758 289.07C205.626 289.042 205.521 288.924 205.509 288.795C205.496 288.666 205.573 288.534 205.692 288.472C205.838 288.397 206.035 288.43 206.144 288.548Z" fill="white"/>
<path d="M205.321 288.398C205.736 288.264 206.527 287.03 206.869 286.689C207.475 286.087 208.26 285.245 209.216 285.676C209.303 285.715 209.398 285.786 209.383 285.877C209.371 285.952 209.29 285.995 209.218 286.03C208.548 286.354 208.14 286.823 207.635 287.327C207.157 287.805 206.656 288.245 206.212 288.763C206.315 288.643 206.333 288.551 206.222 288.437C206.111 288.324 205.939 288.28 205.777 288.286C205.617 288.293 205.475 288.349 205.321 288.398Z" fill="white"/>
<path d="M203.48 287.292C203.294 287.217 203.088 287.179 202.89 287.217C202.369 287.32 202.207 287.972 202.685 288.222C203.066 288.422 203.889 288.546 203.994 287.975C204.021 287.826 203.965 287.67 203.865 287.551C203.766 287.435 203.627 287.351 203.48 287.292ZM203.541 287.559C203.65 287.677 203.659 287.867 203.563 287.994C203.466 288.121 203.272 288.172 203.121 288.109L203.156 288.081C203.024 288.052 202.919 287.935 202.907 287.806C202.894 287.677 202.971 287.545 203.09 287.482C203.235 287.407 203.433 287.44 203.541 287.559Z" fill="white"/>
<path d="M202.719 287.408C203.221 286.749 203.786 286.133 204.404 285.572C205.082 284.957 206.009 284.203 207.02 284.427C207.082 284.44 207.149 284.462 207.183 284.514C207.258 284.629 207.118 284.76 206.997 284.831C206.324 285.231 205.708 285.716 205.169 286.271C204.665 286.79 204.071 287.203 203.611 287.775C203.714 287.655 203.732 287.562 203.621 287.449C203.51 287.335 203.338 287.292 203.176 287.297C203.014 287.303 202.873 287.358 202.719 287.408Z" fill="white"/>
<path d="M201.097 286.27C200.912 286.196 200.704 286.157 200.507 286.196C199.986 286.299 199.823 286.95 200.303 287.201C200.684 287.4 201.507 287.525 201.611 286.955C201.638 286.805 201.582 286.649 201.482 286.531C201.383 286.413 201.244 286.33 201.097 286.27ZM201.158 286.537C201.267 286.655 201.276 286.845 201.179 286.972C201.082 287.099 200.889 287.15 200.737 287.087L200.772 287.059C200.64 287.03 200.535 286.912 200.523 286.783C200.51 286.655 200.587 286.523 200.706 286.46C200.852 286.386 201.049 286.419 201.158 286.537Z" fill="white"/>
<path d="M200.336 286.386C200.838 285.727 201.403 285.111 202.021 284.551C202.492 284.123 202.942 283.651 203.517 283.347C204.023 283.08 204.459 282.845 205.054 283.006C205.172 283.038 205.305 283.107 205.31 283.223C205.315 283.341 205.184 283.418 205.072 283.471C204.28 283.845 203.552 284.34 202.922 284.93C202.606 285.225 202.317 285.544 202.052 285.881C201.81 286.19 201.488 286.448 201.228 286.752C201.331 286.632 201.349 286.54 201.238 286.426C201.127 286.313 200.955 286.269 200.793 286.275C200.632 286.281 200.49 286.337 200.336 286.386Z" fill="white"/>
<path d="M213.443 293.207C208.181 291.758 203.111 289.576 198.208 287.466L198.277 287.321C203.174 289.429 208.238 291.608 213.489 293.053L213.443 293.207Z" fill="white"/>
<path d="M191.278 292.118C191.931 292.764 192.851 293.113 193.779 293.26C194.707 293.406 195.654 293.368 196.594 293.344C200.572 293.245 204.638 293.434 208.357 294.782C208.309 294.933 208.317 295.18 208.269 295.331C204.463 294.142 200.352 293.701 196.355 293.935C195.367 293.993 194.366 294.094 193.396 293.907C192.425 293.72 191.666 292.986 191.278 292.118Z" fill="#381905"/>
<path d="M199.72 290.946C199.486 291.146 199.099 291.153 198.862 290.953C198.609 290.738 198.582 290.338 198.805 290.096L198.93 290.201C198.768 290.377 198.788 290.678 198.972 290.834C199.155 290.989 199.471 290.972 199.638 290.8C199.803 290.63 199.794 290.325 199.619 290.162C199.446 290 199.118 289.996 198.947 290.155L198.833 290.039C199.074 289.83 199.497 289.826 199.735 290.048C199.974 290.272 199.986 290.673 199.76 290.907C199.748 290.921 199.734 290.934 199.72 290.946Z" fill="white"/>
<path d="M204.092 291.565C204.061 291.592 204.027 291.615 203.99 291.634C203.711 291.781 203.322 291.681 203.159 291.419C202.996 291.157 203.09 290.782 203.36 290.621L203.38 290.61L203.434 290.609L203.424 290.589C203.712 290.457 204.094 290.578 204.24 290.849C204.367 291.083 204.296 291.391 204.092 291.565ZM203.398 290.792C203.244 290.923 203.196 291.167 203.302 291.338C203.419 291.527 203.708 291.601 203.909 291.495C204.108 291.389 204.196 291.116 204.091 290.921C203.986 290.727 203.702 290.636 203.495 290.731L203.496 290.766L203.43 290.767C203.419 290.774 203.409 290.783 203.398 290.792Z" fill="white"/>
<path d="M92.6114 90.9814L105.675 91.0854C105.63 91.155 105.587 91.2275 105.542 91.2971C114.145 98.6747 122.749 106.051 131.352 113.429C133.895 115.61 136.934 118.21 137.625 121.574C137.889 122.861 137.664 124.453 136.445 125.059C135.59 125.483 134.55 125.266 133.63 124.989C129.413 123.721 126.734 121.346 123.312 118.943C119.644 116.369 115.937 113.83 112.006 111.628C109.947 110.475 108.031 108.877 106.109 107.491C103.934 105.923 101.818 104.272 99.8804 102.439C96.6144 99.3517 93.8364 95.6901 92.4404 91.5116C92.4954 91.3352 92.5564 91.1588 92.6114 90.9814Z" fill="#E87578"/>
<path d="M158.597 105.421C158.592 105.421 158.587 105.421 158.582 105.421C158.468 105.414 158.383 105.318 158.392 105.21C158.624 102.158 159.229 98.7425 159.814 95.4403C160.261 92.9125 160.684 90.5248 160.956 88.2763C161.91 80.3828 160.796 72.3052 157.733 64.9161C157.691 64.815 157.743 64.7006 157.849 64.6606C157.957 64.6224 158.075 64.6701 158.117 64.7712C161.204 72.2203 162.328 80.3637 161.366 88.322C161.093 90.5801 160.65 93.0831 160.221 95.5052C159.638 98.8006 159.034 102.207 158.803 105.239C158.796 105.342 158.705 105.421 158.597 105.421Z" fill="#381905"/>
<path d="M117.124 86.3369C117.064 86.3369 117.007 86.3121 116.968 86.2692C113.84 82.8278 110.416 79.5743 106.789 76.5954C106.703 76.5249 106.693 76.3999 106.767 76.317C106.842 76.2369 106.974 76.2264 107.058 76.297C110.634 79.232 114.015 82.4369 117.107 85.821C120.894 80.7663 124.964 75.8087 129.206 71.0848C129.25 71.0343 129.323 71.0114 129.388 71.0171C129.457 71.0257 129.517 71.0667 129.548 71.1258C129.68 71.3814 129.985 71.6408 130.321 71.8524C130.218 71.7371 130.096 71.6379 129.958 71.5606C129.902 71.5292 129.864 71.4739 129.858 71.4119C129.851 71.3499 129.874 71.2889 129.923 71.2469C130.526 70.712 131.318 70.362 132.138 70.2543C131.754 69.9987 131.423 69.6707 131.173 69.2921C131.112 69.2006 131.142 69.0786 131.238 69.0204C131.333 68.9651 131.462 68.9899 131.523 69.0824C131.863 69.5973 132.374 70.0083 132.964 70.239C133.058 70.2762 133.109 70.3716 133.087 70.465C133.065 70.5585 132.979 70.6338 132.873 70.6185C131.994 70.569 131.088 70.8493 130.398 71.3737C130.695 71.6064 130.914 71.9268 131.013 72.2834C131.034 72.3569 131.008 72.4351 130.948 72.4846C130.888 72.5342 130.805 72.5476 130.73 72.5142C130.269 72.3178 129.676 71.963 129.338 71.5425C125.113 76.2598 121.061 81.2078 117.291 86.2521C117.255 86.3016 117.197 86.3321 117.133 86.335C117.13 86.3369 117.127 86.3369 117.124 86.3369Z" fill="#381905"/>
<path d="M337.554 152.139H327.447V279.648H337.554V152.139Z" fill="#381905"/>
<path d="M659.027 152.139H648.92V279.648H659.027V152.139Z" fill="#381905"/>
<path d="M608.883 169.597H249.473V195.271H608.883V169.597Z" fill="#381905"/>
<path d="M489.901 130.398C489.901 130.398 491.842 122.747 483.381 119.705V90.0991C483.381 90.0991 483.034 87.6189 480.607 87.4596C478.18 87.3004 477.604 89.1989 477.604 90.3327C477.604 91.4664 480.539 127.906 480.539 127.906L485.047 130.398H489.901Z" fill="white"/>
<path d="M479.549 119.971C475.361 119.971 471.966 123.208 471.966 127.202V130.398H487.131V127.202C487.132 123.208 483.737 119.971 479.549 119.971Z" fill="#381905"/>
<path d="M481.495 121.204V90.3322C481.495 89.3081 480.623 88.4775 479.549 88.4775C478.475 88.4775 477.604 89.3081 477.604 90.3322V121.204H481.495Z" fill="#381905"/>
<path d="M487.265 130.16H471.733H167.453V142.521H791.546V130.16H487.265Z" fill="#595668"/>
<path d="M487.982 130.16L437.772 172.265H109.286L167.453 130.16H487.982Z" fill="#747284"/>
<path d="M440.371 172.266C440.371 172.266 442.412 164.225 433.52 161.028V129.915C433.52 129.915 433.156 127.309 430.605 127.141C428.054 126.973 427.449 128.969 427.449 130.16C427.449 131.352 430.532 169.646 430.532 169.646L435.27 172.266H440.371Z" fill="#381905"/>
<path d="M437.461 172.266H421.524H109.286V184.95H749.699V172.266H437.461Z" fill="white"/>
<path d="M429.492 161.307C425.091 161.307 421.523 164.709 421.523 168.906V172.265H437.461V168.906C437.461 164.709 433.893 161.307 429.492 161.307Z" fill="white"/>
<path d="M431.537 162.604V130.16C431.537 129.083 430.622 128.211 429.493 128.211C428.364 128.211 427.449 129.083 427.449 130.16V162.604H431.537Z" fill="white"/>
<path d="M487.265 130.16L440.468 169.723V172.265H749.699L791.546 130.16H487.265Z" fill="#747284"/>
<path d="M429.492 128.407C429.433 128.407 429.374 128.382 429.333 128.336C429.26 128.253 429.272 128.128 429.36 128.06L479.986 87.7645C480.073 87.6939 480.205 87.7072 480.276 87.7893C480.35 87.8722 480.337 87.9971 480.25 88.0658L429.624 128.362C429.586 128.392 429.539 128.407 429.492 128.407Z" fill="white"/>
<path d="M431.235 162.058C431.177 162.058 431.12 162.035 431.079 161.99C431.005 161.907 431.014 161.782 431.101 161.712L482.121 119.822C482.21 119.75 482.339 119.759 482.413 119.842C482.487 119.925 482.478 120.05 482.392 120.121L431.371 162.01C431.331 162.043 431.283 162.058 431.235 162.058Z" fill="white"/>
<path d="M431.536 156.78C431.479 156.78 431.421 156.757 431.38 156.713C431.305 156.631 431.314 156.507 431.4 156.436L481.355 114.92C481.439 114.848 481.57 114.859 481.647 114.94C481.721 115.021 481.712 115.146 481.626 115.217L431.671 156.731C431.633 156.764 431.585 156.78 431.536 156.78Z" fill="white"/>
<path d="M431.536 152.335C431.479 152.335 431.421 152.312 431.38 152.267C431.305 152.185 431.314 152.061 431.4 151.99L481.355 110.477C481.439 110.401 481.57 110.412 481.647 110.495C481.721 110.577 481.712 110.701 481.626 110.771L431.671 152.287C431.633 152.319 431.585 152.335 431.536 152.335Z" fill="white"/>
<path d="M431.536 147.891C431.479 147.891 431.421 147.868 431.38 147.824C431.305 147.743 431.314 147.618 431.4 147.547L481.355 106.031C481.439 105.956 481.571 105.966 481.645 106.049C481.721 106.13 481.711 106.255 481.626 106.326L431.671 147.842C431.633 147.876 431.585 147.891 431.536 147.891Z" fill="white"/>
<path d="M431.536 143.445C431.479 143.445 431.421 143.422 431.38 143.378C431.305 143.296 431.314 143.172 431.4 143.101L481.355 101.585C481.439 101.513 481.57 101.524 481.647 101.605C481.721 101.686 481.712 101.811 481.626 101.882L431.671 143.396C431.633 143.43 431.585 143.445 431.536 143.445Z" fill="white"/>
<path d="M431.536 139C431.479 139 431.421 138.977 431.38 138.932C431.305 138.85 431.314 138.726 431.4 138.656L481.355 97.1416C481.439 97.0663 481.57 97.0768 481.647 97.1597C481.721 97.2417 481.712 97.3657 481.626 97.4362L431.671 138.952C431.633 138.985 431.585 139 431.536 139Z" fill="white"/>
<path d="M431.536 134.556C431.479 134.556 431.421 134.533 431.38 134.489C431.305 134.408 431.314 134.283 431.4 134.212L481.355 92.6963C481.439 92.6238 481.57 92.6333 481.647 92.7163C481.721 92.7973 481.712 92.9223 481.626 92.9928L431.672 134.508C431.633 134.541 431.585 134.556 431.536 134.556Z" fill="white"/>
<path d="M431.536 130.11C431.479 130.11 431.421 130.088 431.38 130.043C431.305 129.961 431.314 129.837 431.4 129.766L481.355 88.2503C481.439 88.175 481.571 88.1874 481.645 88.2685C481.721 88.3505 481.711 88.4744 481.626 88.545L431.671 130.061C431.633 130.095 431.585 130.11 431.536 130.11Z" fill="white"/>
<path d="M434.823 159.002C434.709 159.002 434.616 158.914 434.616 158.805V125.277C434.616 125.168 434.709 125.08 434.823 125.08C434.937 125.08 435.029 125.168 435.029 125.277V158.805C435.029 158.914 434.937 159.002 434.823 159.002Z" fill="white"/>
<path d="M439.352 155.275C439.238 155.275 439.145 155.188 439.145 155.079V121.552C439.145 121.442 439.238 121.354 439.352 121.354C439.466 121.354 439.558 121.442 439.558 121.552V155.079C439.558 155.188 439.465 155.275 439.352 155.275Z" fill="white"/>
<path d="M443.878 151.55C443.764 151.55 443.672 151.462 443.672 151.353V117.826C443.672 117.717 443.765 117.629 443.878 117.629C443.992 117.629 444.084 117.717 444.084 117.826V151.353C444.084 151.462 443.992 151.55 443.878 151.55Z" fill="white"/>
<path d="M448.406 147.826C448.292 147.826 448.2 147.738 448.2 147.629V114.101C448.2 113.991 448.293 113.904 448.406 113.904C448.519 113.904 448.613 113.992 448.613 114.101V147.629C448.612 147.738 448.519 147.826 448.406 147.826Z" fill="white"/>
<path d="M452.934 144.1C452.82 144.1 452.727 144.012 452.727 143.903V110.376C452.727 110.266 452.82 110.18 452.934 110.18C453.048 110.18 453.141 110.267 453.141 110.376V143.903C453.14 144.013 453.047 144.1 452.934 144.1Z" fill="white"/>
<path d="M457.46 140.376C457.346 140.376 457.253 140.288 457.253 140.179V106.652C457.253 106.543 457.346 106.456 457.46 106.456C457.574 106.456 457.666 106.544 457.666 106.652V140.179C457.666 140.289 457.573 140.376 457.46 140.376Z" fill="white"/>
<path d="M461.988 136.65C461.874 136.65 461.781 136.563 461.781 136.454V102.926C461.781 102.816 461.874 102.729 461.988 102.729C462.102 102.729 462.194 102.817 462.194 102.926V136.454C462.194 136.563 462.101 136.65 461.988 136.65Z" fill="white"/>
<path d="M466.516 132.925C466.402 132.925 466.31 132.837 466.31 132.728V99.2013C466.31 99.0916 466.403 99.0039 466.516 99.0039C466.63 99.0039 466.722 99.0916 466.722 99.2013V132.728C466.722 132.837 466.629 132.925 466.516 132.925Z" fill="white"/>
<path d="M471.042 129.202C470.928 129.202 470.836 129.114 470.836 129.005V95.4777C470.836 95.368 470.929 95.2812 471.042 95.2812C471.156 95.2812 471.249 95.369 471.249 95.4777V129.005C471.249 129.114 471.156 129.202 471.042 129.202Z" fill="white"/>
<path d="M475.57 125.476C475.455 125.476 475.363 125.389 475.363 125.279V91.7521C475.363 91.6424 475.455 91.5557 475.57 91.5557C475.685 91.5557 475.777 91.6434 475.777 91.7521V125.279C475.777 125.389 475.685 125.476 475.57 125.476Z" fill="white"/>
<path d="M791.546 142.521L749.699 184.949V172.265L791.546 130.16V142.521Z" fill="#381905"/>
<path d="M271.471 193.445H261.364V320.955H271.471V193.445Z" fill="#381905"/>
<path d="M592.944 193.445H582.837V320.955H592.944V193.445Z" fill="#381905"/>
<path d="M791.547 86.4676L783.997 74.7637C778.426 80.2104 773.181 85.9603 768.291 91.9725C768.193 93.2273 768.207 95.205 768.96 97.4668C770.01 100.616 771.935 102.641 772.983 103.598C776.051 101.43 779.412 98.7894 791.547 86.4676Z" fill="#A2493B"/>
<path d="M772.982 103.6L768.29 91.9734C768.237 92.0383 768.182 92.1012 768.129 92.166C757.862 87.0779 747.597 81.9888 737.33 76.8997C733.671 75.086 730.135 73.1789 726.311 71.7352C725.942 71.596 725.473 71.472 725.188 71.7362C725.001 71.9087 724.977 72.1824 724.878 72.4122C724.692 72.847 724.226 73.1264 723.747 73.2342C723.268 73.3419 722.767 73.3067 722.276 73.2819C719.605 73.1474 716.916 73.3515 714.3 73.8807C712.998 74.1439 711.751 74.5882 710.461 74.8743C709.581 75.0698 708.598 75.3625 708.523 76.4267C711.638 76.4953 714.753 76.565 717.868 76.6336C718.157 76.6403 718.516 76.6927 718.606 76.955C718.676 77.16 718.519 77.385 718.315 77.4785C718.111 77.5719 717.875 77.5681 717.648 77.5652C714.24 77.5166 710.823 78.0782 707.628 79.212C707.283 79.3341 706.93 79.4704 706.672 79.7203C706.414 79.9701 706.276 80.3668 706.439 80.6814C706.695 81.1754 707.429 81.1573 707.998 81.0638C710.449 80.6643 712.901 80.2638 715.352 79.8642C715.99 79.7603 716.673 79.6669 717.318 79.7689C717.566 79.8089 718.199 79.9205 718.342 80.1322C718.714 80.6814 717.399 80.7072 716.987 80.8025C715.386 81.1744 713.814 81.6598 712.289 82.2548C711.378 82.6105 710.376 83.1235 710.158 84.0389C710.101 84.2763 710.116 84.5529 710.297 84.7245C710.619 85.0306 711.158 84.797 711.545 84.5681C712.724 83.872 713.999 83.3199 715.333 82.9557C716.175 82.7249 717.078 82.3912 717.965 82.3959C719.615 82.4055 717.982 83.2227 717.393 83.564C715.941 84.4041 714.366 85.3958 713.941 86.9644C713.847 87.3125 713.923 87.8121 714.299 87.8445C714.502 87.8617 714.677 87.7187 714.827 87.588C717.24 85.4816 720.232 84.0103 723.402 83.2608C724.854 82.9175 726.558 82.5552 728.054 82.7278C729.798 82.929 731.384 83.9426 732.821 84.8303C737.283 87.5852 741.759 90.3467 745.895 93.5401C747.751 94.9733 749.993 96.1223 752.028 97.3515C754.332 98.7418 756.696 100.051 759.176 101.138C763.355 102.969 767.926 104.163 772.52 103.941C772.676 103.828 772.827 103.712 772.982 103.6Z" fill="#A2493B"/>
<path d="M846.176 70.5391L833.491 77.0585C838.876 82.673 844.597 87.9939 850.613 92.9924C851.922 93.1574 853.993 93.2575 856.404 92.6682C859.761 91.8491 861.991 90.1308 863.053 89.1877C860.958 86.1449 858.385 82.7941 846.176 70.5391Z" fill="#A2493B"/>
<path d="M837.755 185.701C836.627 187.32 836.822 189.57 837.906 191.217C838.99 192.863 840.825 193.958 842.76 194.573C848.654 196.444 855.037 194.224 860.748 191.894C862.765 191.071 864.918 190.109 865.963 188.269C867.04 186.372 866.598 183.897 865.202 182.201C863.806 180.503 861.606 179.529 859.369 179.207C857.133 178.885 854.848 179.159 852.631 179.589" fill="#381905"/>
<path d="M796.963 174.521C795.869 175.588 794.76 176.717 794.251 178.128C793.742 179.539 794.002 181.315 795.267 182.193C796.191 182.835 797.446 182.886 798.408 183.476C799.488 184.139 800.014 185.352 800.57 186.455C801.767 188.831 803.406 191.045 805.585 192.669C807.764 194.292 810.515 195.292 813.276 195.146C814.929 195.058 816.528 194.574 818.105 194.092C819.358 193.71 820.663 193.299 821.587 192.406C822.97 191.072 823.166 189.023 823.283 187.15C823.307 186.758 823.285 186.28 822.923 186.093C822.606 185.929 822.223 186.092 821.865 186.134C820.662 186.274 819.837 185.062 819.213 184.07C816.914 180.412 813.189 177.59 808.931 176.283C805.807 175.323 802.485 175.167 799.207 175.018" fill="#381905"/>
<path d="M886.989 264.856C888.204 266.91 888.648 269.717 890.452 271.42C891.516 272.424 893.087 273.091 893.523 274.457C894.005 275.969 892.948 277.34 892.885 278.814C892.833 280.035 894.156 281.2 893.307 282.348C892.989 282.778 892.473 282.973 892.138 283.359C892.039 283.351 890.979 285.026 890.778 285.2C890.203 285.701 889.278 286.261 888.456 286.071C886.831 285.694 886.151 282.762 885.557 281.491C883.739 277.602 881.922 273.714 880.104 269.825C879.483 268.496 878.847 267.074 879.075 265.636C879.45 263.274 882.538 261.72 884.794 262.757C885.789 263.214 886.462 263.963 886.989 264.856Z" fill="#A2493B"/>
<path d="M843.404 203.05C842.753 199.895 842.185 196.712 841.544 193.531C841.004 190.855 840.466 188.079 841.139 185.43C842.475 180.173 849.561 177.623 854.459 176.592C859.133 175.607 865.297 176.005 866.029 181.603C866.237 183.196 865.999 184.807 865.76 186.396C865.091 190.858 863.283 196.349 863.927 200.822C864.511 204.881 865.424 209.322 867.38 213.008C869.235 216.503 872.474 218.525 874.545 221.761C879.328 229.234 882.724 237.586 884.639 246.14C885.358 249.35 885.672 252.622 886.154 255.868C886.636 259.119 886.749 262.434 887.001 265.708C887.076 266.683 887.145 267.701 886.756 268.607C886.161 269.992 882.318 271.371 880.936 270.617C880.357 270.301 879.946 269.773 879.559 269.255C876.61 265.312 874.193 261.096 871.857 256.805C868.906 251.384 865.794 246.043 862.528 240.788C858.119 233.693 852.46 227.312 848.731 219.834C846.052 214.463 844.591 208.805 843.404 203.05Z" fill="#A2493B"/>
<path d="M895.322 273.688C894.13 272.828 892.823 272.094 891.402 271.653C891.031 271.537 890.549 271.473 890.318 271.774C890.107 272.048 890.262 272.434 890.437 272.731C890.725 273.222 891.055 273.698 891.245 274.23C891.436 274.763 891.47 275.378 891.176 275.866C890.798 276.493 890.002 276.749 889.275 276.954C888.464 277.182 887.654 277.411 886.843 277.64C886.265 277.803 885.664 277.979 885.226 278.374C884.757 278.798 884.538 279.457 884.664 280.061C885.078 282.046 884.443 284.02 884.367 286.042C884.309 287.596 884.251 289.152 884.338 290.705C884.388 291.607 884.49 292.517 884.801 293.37C885.112 294.223 885.649 295.024 886.432 295.534C886.847 295.804 887.237 295.291 887.62 294.982C889.479 293.481 890.839 291.505 892.102 289.519C893.119 287.921 894.097 286.287 894.764 284.529C895.43 282.77 895.776 280.87 895.494 279.02C895.234 277.303 895.103 275.411 895.322 273.688Z" fill="#381905"/>
<path d="M888.383 277.552C888.462 276.957 888 276.39 887.426 276.145C886.853 275.9 886.197 275.914 885.573 275.979C884.169 276.126 882.805 276.507 881.449 276.887C881.1 276.984 880.745 277.085 880.449 277.287C880.154 277.49 879.926 277.815 879.949 278.161C879.988 278.764 880.696 279.093 881.036 279.603C881.263 279.943 881.319 280.36 881.369 280.76C881.898 284.981 882.349 289.15 882.018 293.406C881.973 293.99 881.921 294.603 882.171 295.137C882.735 295.026 883.346 295.187 883.906 295.315C884.466 295.444 885.1 295.511 885.58 295.208C885.947 294.975 886.151 294.567 886.257 294.159C886.465 293.361 886.363 292.525 886.314 291.705C886.189 289.587 886.43 287.45 887.024 285.406" fill="#381905"/>
<path d="M894.148 272.924C894.868 273.309 895.166 274.182 895.099 274.965C895.032 275.75 894.673 276.48 894.361 277.209C893.036 280.31 892.501 283.66 891.46 286.858C890.419 290.056 888.734 293.253 885.795 295.085C884.629 294.451 883.293 294.473 882.082 295.025C881.318 296.092 880.817 297.337 880.629 298.616C880.445 298.681 880.309 298.959 880.283 299.144C880.258 299.329 880.307 299.517 880.368 299.694C880.577 300.309 880.937 300.894 881.48 301.281C882.024 301.667 882.768 301.826 883.401 301.593C887.392 300.125 890.431 296.89 892.758 293.468C893.951 291.714 894.496 289.923 894.954 287.878C895.412 285.834 895.73 283.75 896.47 281.781C897.057 280.221 897.913 278.717 898.059 277.065C898.117 276.401 898.052 275.709 897.733 275.115C897.118 273.965 895.423 273.362 894.148 272.924Z" fill="white"/>
<path d="M891.54 292.419C892.655 290.795 893.325 288.805 893.745 286.91C894.177 284.959 894.457 282.973 895.067 281.066C895.446 279.882 895.95 278.734 896.246 277.529C896.542 276.324 896.617 275.027 896.144 273.874C896.468 274.039 896.753 274.624 896.873 274.956C897.156 275.743 897.076 276.612 896.849 277.415C896.622 278.217 896.254 278.977 895.956 279.758C895.141 281.895 894.853 284.176 894.403 286.409C893.956 288.626 893.315 290.87 891.924 292.693C891.796 292.602 891.669 292.509 891.54 292.419Z" fill="#381905"/>
<path d="M885.499 292.762C885.523 292.911 885.605 293.057 885.738 293.139C886.248 293.453 886.71 292.792 886.816 292.389C886.948 291.884 886.335 291.554 885.903 291.85C885.739 291.962 885.628 292.134 885.56 292.314C885.506 292.457 885.476 292.612 885.499 292.762ZM885.971 292.171C886.1 292.13 886.253 292.165 886.344 292.261C886.435 292.358 886.455 292.511 886.387 292.623L886.432 292.617C886.378 292.766 886.208 292.867 886.044 292.849C885.88 292.831 885.74 292.695 885.722 292.538C885.706 292.382 885.815 292.22 885.971 292.171Z" fill="white"/>
<path d="M886.165 291.859C885.317 291.763 884.46 291.741 883.607 291.793C883.253 291.815 882.892 291.851 882.57 291.993C882.248 292.134 881.966 292.4 881.9 292.733C881.884 292.814 881.885 292.908 881.946 292.967C882.023 293.04 882.151 293.018 882.256 292.993C883.425 292.717 884.642 292.628 885.841 292.733C885.679 292.723 885.595 292.674 885.583 292.519C885.571 292.364 885.653 292.215 885.768 292.105C885.884 291.994 886.023 291.933 886.165 291.859Z" fill="white"/>
<path d="M885.59 290.385C885.613 290.534 885.696 290.68 885.829 290.762C886.339 291.076 886.802 290.415 886.907 290.012C887.039 289.507 886.426 289.177 885.994 289.473C885.83 289.585 885.719 289.757 885.651 289.937C885.597 290.08 885.566 290.235 885.59 290.385ZM886.062 289.794C886.191 289.753 886.344 289.788 886.435 289.885C886.526 289.981 886.546 290.134 886.478 290.246L886.523 290.24C886.469 290.389 886.299 290.491 886.135 290.472C885.971 290.454 885.83 290.318 885.814 290.161C885.797 290.005 885.906 289.843 886.062 289.794Z" fill="white"/>
<path d="M886.257 289.484C884.964 289.338 883.637 289.29 882.487 289.963C882.346 290.045 882.208 290.139 882.104 290.262C882.001 290.385 881.934 290.543 881.953 290.701C881.944 290.629 883.659 290.389 883.778 290.376C884.493 290.302 885.217 290.295 885.934 290.358C885.772 290.349 885.687 290.299 885.675 290.144C885.663 289.99 885.747 289.84 885.861 289.73C885.976 289.62 886.114 289.558 886.257 289.484Z" fill="white"/>
<path d="M885.711 288.178C885.778 288.315 885.899 288.434 886.052 288.477C886.634 288.641 886.883 287.883 886.865 287.468C886.843 286.947 886.158 286.796 885.83 287.196C885.706 287.348 885.65 287.541 885.637 287.733C885.628 287.885 885.644 288.041 885.711 288.178ZM885.99 287.484C886.102 287.41 886.259 287.403 886.375 287.471C886.491 287.54 886.555 287.681 886.523 287.807L886.565 287.789C886.557 287.946 886.423 288.089 886.261 288.115C886.098 288.142 885.923 288.048 885.861 287.903C885.798 287.758 885.855 287.575 885.99 287.484Z" fill="white"/>
<path d="M886.084 287.134C885.965 287.246 885.397 287.26 885.221 287.3C884.945 287.362 884.649 287.415 884.385 287.515C883.925 287.691 883.414 287.664 882.943 287.84C882.521 288 882.135 288.283 881.943 288.675C881.883 288.798 881.852 288.966 881.961 289.053C882.076 289.146 882.249 289.079 882.383 289.013C882.956 288.731 883.571 288.527 884.203 288.407C884.502 288.35 884.814 288.347 885.109 288.286C885.415 288.223 885.722 288.125 886.031 288.058C885.873 288.092 885.778 288.066 885.72 287.921C885.663 287.776 885.698 287.61 885.776 287.474C885.854 287.34 885.969 287.243 886.084 287.134Z" fill="white"/>
<path d="M885.744 285.683C885.811 285.821 885.932 285.939 886.085 285.982C886.667 286.146 886.916 285.387 886.898 284.973C886.876 284.452 886.191 284.301 885.863 284.7C885.739 284.852 885.683 285.046 885.67 285.237C885.661 285.389 885.677 285.545 885.744 285.683ZM886.023 284.989C886.135 284.915 886.292 284.908 886.408 284.976C886.523 285.044 886.588 285.186 886.556 285.312L886.598 285.294C886.589 285.451 886.456 285.593 886.294 285.62C886.131 285.647 885.956 285.553 885.894 285.407C885.831 285.262 885.888 285.079 886.023 284.989Z" fill="white"/>
<path d="M886.118 284.637C885.808 284.931 884.296 285.059 883.825 285.199C882.989 285.448 881.849 285.745 881.83 286.754C881.828 286.845 881.852 286.958 881.945 286.986C882.021 287.009 882.098 286.96 882.162 286.914C882.765 286.486 883.387 286.345 884.084 286.139C884.746 285.942 885.381 285.71 886.066 285.562C885.908 285.596 885.813 285.57 885.756 285.425C885.699 285.28 885.734 285.114 885.812 284.978C885.888 284.843 886.003 284.746 886.118 284.637Z" fill="white"/>
<path d="M885.973 283.019C886.04 283.156 886.162 283.275 886.314 283.318C886.896 283.482 887.145 282.723 887.127 282.309C887.105 281.788 886.42 281.637 886.092 282.037C885.968 282.188 885.912 282.382 885.899 282.574C885.89 282.725 885.906 282.881 885.973 283.019ZM886.253 282.325C886.365 282.251 886.522 282.244 886.638 282.312C886.753 282.379 886.818 282.522 886.786 282.648L886.828 282.629C886.819 282.787 886.686 282.93 886.524 282.956C886.361 282.983 886.186 282.889 886.124 282.744C886.06 282.599 886.117 282.416 886.253 282.325Z" fill="white"/>
<path d="M886.347 281.974C885.505 282.109 884.675 282.318 883.873 282.597C882.993 282.902 881.873 283.359 881.634 284.322C881.619 284.381 881.61 284.448 881.643 284.5C881.717 284.615 881.903 284.553 882.024 284.481C882.698 284.085 883.429 283.774 884.189 283.56C884.9 283.361 885.553 283.037 886.294 282.899C886.136 282.933 886.041 282.907 885.983 282.762C885.926 282.617 885.961 282.451 886.039 282.315C886.117 282.18 886.232 282.083 886.347 281.974Z" fill="white"/>
<path d="M886.073 280.532C886.14 280.669 886.261 280.787 886.414 280.83C886.996 280.994 887.245 280.236 887.227 279.822C887.205 279.3 886.52 279.15 886.192 279.55C886.068 279.7 886.012 279.895 885.999 280.087C885.99 280.238 886.006 280.394 886.073 280.532ZM886.352 279.838C886.463 279.764 886.621 279.757 886.737 279.824C886.853 279.892 886.917 280.033 886.885 280.16L886.927 280.142C886.919 280.3 886.785 280.443 886.623 280.469C886.46 280.495 886.285 280.402 886.223 280.257C886.16 280.112 886.217 279.927 886.352 279.838Z" fill="white"/>
<path d="M886.447 279.484C885.605 279.62 884.776 279.829 883.973 280.108C883.362 280.321 882.718 280.495 882.177 280.851C881.701 281.165 881.287 281.432 881.174 282.012C881.152 282.127 881.157 282.272 881.265 282.327C881.374 282.383 881.504 282.306 881.603 282.234C882.306 281.724 883.095 281.323 883.929 281.046C884.346 280.908 884.773 280.802 885.208 280.726C885.606 280.656 885.992 280.496 886.394 280.409C886.236 280.444 886.141 280.418 886.083 280.273C886.026 280.128 886.061 279.962 886.139 279.826C886.218 279.69 886.332 279.594 886.447 279.484Z" fill="white"/>
<path d="M887.023 293.71C888.002 288.572 888.207 283.272 888.405 278.146L888.239 278.141C888.041 283.26 887.836 288.554 886.859 293.683L887.023 293.71Z" fill="white"/>
<path d="M824.655 182.721L806.406 166.922C796.903 180.836 789.162 193.678 782.746 209.03C782.634 209.281 782.509 209.571 782.34 209.97C777.852 220.547 775.544 232.794 772.681 243.823C771.142 249.752 769.429 255.64 767.545 261.477C766.135 265.844 764.638 270.207 763.678 274.689C763.568 275.202 763.465 275.716 763.37 276.232C762.865 278.976 762.699 284.773 767.606 282.819C769.256 282.162 770.36 280.688 771.376 279.286C775.591 273.467 780.33 268.233 784.499 262.431C788.594 256.731 791.572 250.049 793.739 243.485C795.77 237.328 795.585 231.154 798.996 225.218C801.277 221.25 804.439 218.069 807.139 214.406C809.308 211.463 810.617 208.089 812.436 204.885C813.448 203.103 825.287 183.268 824.655 182.721Z" fill="#A2493B"/>
<path d="M812.736 148.865C811.704 150.777 810.896 153.23 809.489 154.857C808.008 156.569 804.581 157.577 804.689 160.224C804.717 160.901 805.027 161.543 805.077 162.219C805.184 163.646 804.148 164.894 803.165 165.974C801.876 167.391 792.268 178.369 795.657 179.898C796.464 180.262 797.405 179.933 798.27 179.722C802.157 178.768 806.187 180.313 809.874 181.827C812.507 182.908 815.21 184.035 817.228 185.976C819.246 187.917 820.44 190.896 819.406 193.446C821.413 191.653 823.198 189.634 824.711 187.444C826.702 184.564 828.199 181.417 829.821 178.343C830.658 176.757 832.751 171.347 834.836 170.855C836.1 170.558 835.895 175.032 835.687 175.564C834.749 177.961 834.908 178.993 835.745 181.322C836.421 183.203 835.581 184.957 835.941 186.892C836.267 188.647 837.66 190.358 839.523 190.498C839.469 190.938 839.416 191.395 839.563 191.816C839.71 192.236 840.116 192.61 840.58 192.581C841.114 192.549 841.455 192.049 841.78 191.644C843.046 190.066 845.739 189.23 847.702 188.743C853.711 187.252 860.204 186.091 866.407 187.074C866.407 187.074 867.399 182.316 868.103 178.652C868.807 174.987 874.615 154.985 855.269 130.421C835.954 105.898 812.815 148.717 812.736 148.865Z" fill="#381905"/>
<path d="M819.147 33.5312C818.997 34.8224 820.123 35.8999 821.197 36.698C823.069 38.0892 825.149 39.3699 826.325 41.337C827.242 42.8704 827.521 44.6936 828.453 46.2192C829.633 48.1521 831.737 49.4184 833.081 51.2531C834.255 52.856 834.788 54.8279 834.869 56.7817C834.95 58.7356 834.602 60.6827 834.139 62.587C834.045 60.7066 832.809 59.015 831.257 57.8507C829.705 56.6864 827.849 55.9636 826.03 55.2313C824.211 54.4989 822.37 53.7237 820.888 52.4793C818.824 50.7477 817.604 48.1378 817.631 45.5165C817.645 44.1548 817.977 42.8008 817.866 41.4429C817.755 40.086 817.047 38.6347 815.699 38.1856" fill="#381905"/>
<path d="M796.416 53.689C796.804 53.3543 810.246 42.4933 813.869 42.3103C817.492 42.1272 818.172 43.2962 819.489 43.8636C820.806 44.431 820.183 48.2871 821.167 48.1784C822.151 48.0688 837.909 55.3396 837.621 56.4334C837.332 57.5261 835.105 57.3526 836.615 57.9352C838.125 58.5178 842.203 59.8576 842.003 61.0514C841.803 62.2453 840.839 64.4003 840.839 64.4003C842.292 64.5138 844.486 63.9407 844.132 64.6568C843.778 65.3729 850.607 71.0189 850.811 72.0573C851.015 73.0957 838.501 84.8588 837.897 85.0905C837.292 85.3222 858.318 128.984 858.405 132.525C858.492 136.065 828.09 149.503 810.58 151.3C810.58 151.3 805.476 149.415 805.986 145.737C806.496 142.057 808.374 136.067 806.256 133.484C804.137 130.902 800.658 125.982 800.247 121.674C799.836 117.364 793.743 84.9065 793.743 84.9065L790.685 89.8745C790.685 89.8745 784.487 80.2798 779.161 80.9807C779.161 80.9807 777.382 78.983 778.236 78.1191C779.09 77.2561 782.012 77.2971 781.751 75.7895C781.49 74.282 781.004 73.1282 781.471 72.2347C781.937 71.3412 798.202 59.0337 798.088 58.0954C797.971 57.1571 794.936 54.9639 796.416 53.689Z" fill="#FFB878"/>
<path d="M816.396 47.6757C816.853 48.4205 817.339 49.2129 817.306 50.0749C817.267 51.1038 816.506 51.961 815.785 52.7277C811.373 57.4201 806.961 62.1125 802.549 66.8059C801.259 65.594 800.245 64.1169 799.596 62.5054C799.386 61.9838 799.212 61.4241 799.308 60.8729C799.538 59.5446 801.107 58.9229 802.148 58.0132C803.096 57.1855 803.666 55.9783 803.688 54.753C803.716 53.1873 802.87 51.8113 802.116 50.4773C801.257 48.9573 800.398 47.4373 799.539 45.9174C798.312 43.7452 798.886 42.0765 800.7 40.4278C802.727 38.5855 806.109 36.3761 809.043 36.3818C810.149 36.3838 810.786 37.0141 811.268 37.9075C812.084 39.4199 812.714 41.0342 813.505 42.5628C814.405 44.2982 815.369 46.0042 816.396 47.6757Z" fill="#A2493B"/>
<path d="M800.702 40.4265C802.462 38.8264 805.245 36.9508 807.868 36.4883C807.863 36.9965 807.839 37.5029 807.8 38.0044C807.654 39.9106 807.367 41.8148 806.875 43.6685C806.09 46.6312 804.792 49.5205 802.978 52.0551C802.715 51.5172 802.409 50.9937 802.117 50.4769C801.258 48.9569 800.399 47.437 799.54 45.917C798.313 43.7439 798.888 42.0752 800.702 40.4265Z" fill="#381905"/>
<path d="M785.515 29.5147C785.715 30.249 786.088 30.8287 786.411 31.4943C786.736 32.1627 786.697 33.1144 786.695 33.8391C786.691 35.4344 786.364 37.0287 785.725 38.5039C785.487 39.0531 785.202 39.61 785.215 40.2041C785.224 40.5883 785.408 41.0184 785.739 41.253C786.055 41.4761 786.392 41.3664 786.717 41.5247C787.141 41.7307 787.049 42.3095 787.139 42.6757C787.267 43.1963 787.396 43.717 787.524 44.2376C787.579 44.4598 787.65 44.7048 787.854 44.824C788.059 44.9442 788.341 44.9241 788.494 45.1311C788.647 45.337 788.577 45.6326 788.572 45.8739C788.566 46.1266 788.569 46.4022 788.736 46.5976C788.872 46.7569 789.089 46.8265 789.272 46.9342C789.836 47.2661 789.792 47.7448 789.945 48.2645C790.09 48.7574 790.5 49.2409 790.876 49.5918C791.693 50.3556 792.846 50.8143 793.997 50.7198C795.358 50.6083 796.552 49.8464 797.678 49.1093C799.989 47.5941 802.265 46.0274 804.461 44.3635C806.673 42.6871 808.67 40.7991 810.821 39.0627C811.405 38.5916 812.146 38.2083 812.614 37.6247C813.638 36.346 813.947 34.6792 814.071 33.0743C814.262 30.5913 814.082 28.0825 813.538 25.6481C812.943 22.9876 811.886 20.3711 810.063 18.279C808.24 16.1869 805.583 14.666 802.734 14.5401C801.157 14.4705 799.591 14.8195 798.092 15.2915C794.487 16.4272 791.29 18.2914 788.428 20.6505C785.974 22.6701 784.694 26.4996 785.515 29.5147Z" fill="#A2493B"/>
<path d="M787.219 44.9909C787.659 45.2829 788.242 45.2743 788.774 45.2037C789.821 45.0634 790.837 44.7237 791.746 44.2093C790.615 44.4002 789.424 44.2503 788.384 43.7846C787.288 43.2951 785.928 44.133 787.219 44.9909Z" fill="#381905"/>
<path d="M788.614 46.3972C788.943 46.5708 789.339 46.5927 789.713 46.5517C791.143 46.3925 792.395 45.2701 792.65 43.9189C792.615 44.0515 791.019 44.288 790.818 44.3337C790.245 44.4634 789.672 44.5902 789.098 44.7161C788.24 44.903 787.616 45.8718 788.614 46.3972Z" fill="#381905"/>
<path d="M816.623 38.4902C814.821 39.6946 812.337 39.604 810.307 38.7935C808.277 37.9829 806.599 36.5545 804.963 35.1518C801.682 32.3389 798.402 29.5259 795.121 26.7129C793.877 25.6459 792.601 24.5598 791.058 23.9419C789.515 23.324 787.628 23.2515 786.253 24.1602C785.38 23.2639 785.739 21.7782 786.494 20.7894C787.249 19.8006 788.343 19.0835 789.103 18.0975C789.831 17.1545 790.221 16.0073 790.928 15.0509C792.682 12.6766 795.958 11.9233 798.943 11.3445C801.765 10.7971 804.712 10.2526 807.49 10.9754C810.661 11.8003 813.112 14.1374 815.404 16.384C817.802 18.7336 820.294 21.2385 821.139 24.4167C821.767 26.7777 821.406 29.298 820.567 31.5979C819.73 33.8989 818.715 37.0933 816.623 38.4902Z" fill="#381905"/>
<path d="M804.245 35.8978C805.462 34.9032 806.371 33.5711 806.831 32.1074C807.088 31.2902 807.194 30.3624 806.753 29.6196C806.189 28.6699 804.808 28.3294 803.745 28.7366C802.682 29.1438 801.961 30.1593 801.743 31.2311C801.524 32.3029 801.751 33.4195 802.159 34.4398" fill="#A2493B"/>
<path d="M787.534 30.2964C787.894 29.9512 788.374 29.7395 788.865 29.605C790.509 29.1559 792.381 29.5574 793.665 30.6349C793.858 30.797 794.047 31.0764 793.88 31.2633C793.759 31.3987 793.539 31.3748 793.355 31.3491C791.923 31.1536 790.528 31.6104 789.121 31.7782C787.951 31.9184 786.029 31.742 787.534 30.2964Z" fill="#381905"/>
<path d="M804.498 34.1606C804.467 34.1606 804.435 34.1539 804.404 34.1396C804.302 34.09 804.262 33.9718 804.314 33.8755C804.379 33.7515 804.327 33.5713 804.204 33.496C804.08 33.4216 803.889 33.455 803.797 33.5627C803.752 33.6171 803.681 33.639 803.608 33.6362C803.535 33.6266 803.474 33.5818 803.445 33.5179C803.137 32.8275 803.3 31.9655 803.84 31.4211C804.037 31.2237 804.245 31.1083 804.456 31.074C804.772 31.0253 805.064 31.1674 805.182 31.4058C805.23 31.504 805.185 31.6213 805.082 31.6671C804.98 31.71 804.856 31.669 804.808 31.5717C804.771 31.4945 804.642 31.4411 804.524 31.463C804.401 31.4821 804.272 31.5593 804.14 31.6919C803.771 32.0638 803.622 32.6235 803.743 33.1222C803.959 33.0335 804.221 33.0411 804.424 33.1642C804.727 33.3491 804.842 33.7468 804.68 34.0519C804.646 34.1206 804.573 34.1606 804.498 34.1606Z" fill="#381905"/>
<path d="M801.815 68.7946C801.794 68.7946 801.773 68.7917 801.752 68.7851C801.642 68.7517 801.583 68.6401 801.618 68.5371C802.078 67.1821 803.147 65.8958 804.183 64.6524C804.615 64.1336 805.024 63.6426 805.372 63.1639C806.742 61.2854 808.645 60.1268 810.594 59.9857C811.262 59.9389 811.948 60.0038 812.609 60.0686C813.742 60.1821 814.81 60.286 815.766 59.8484C816.878 59.3392 817.522 58.2149 818.005 57.1803C819.712 53.5311 820.9 46.7904 820.547 42.753C820.539 42.6443 820.624 42.5499 820.737 42.5404C820.876 42.5223 820.95 42.6129 820.961 42.7206C821.318 46.8104 820.112 53.6417 818.383 57.3405C817.87 58.44 817.177 59.6386 815.944 60.204C814.882 60.6884 813.704 60.5721 812.568 60.4615C811.924 60.3976 811.251 60.3318 810.626 60.3785C808.801 60.5111 807.01 61.6086 805.711 63.3889C805.354 63.8771 804.942 64.373 804.505 64.8974C803.493 66.1132 802.446 67.3719 802.011 68.6592C801.983 68.7422 801.902 68.7946 801.815 68.7946Z" fill="#381905"/>
<path d="M758.982 286.003C760.335 284.651 761.221 282.927 761.861 281.178C762.666 278.976 763.125 276.671 763.928 274.469C764.53 272.821 766.152 271.682 768.016 271.878C769.199 272.003 770.287 272.535 771.343 273.06C772.296 273.534 773.387 274.219 773.355 275.244C773.341 275.698 773.095 276.114 772.855 276.508C770.397 280.55 766.879 284.827 765.77 289.431C765.537 290.399 765.687 291.605 765.215 292.502C765.008 292.896 764.559 293.133 764.104 293.211C763.56 293.306 763.05 293.099 762.526 293.149C761.838 293.217 761.265 293.582 760.533 293.566C758.923 293.53 757.498 292.289 757.082 290.807C756.54 288.867 757.651 287.33 758.982 286.003Z" fill="#A2493B"/>
<path d="M769.161 291.522C769.408 290.116 769.484 288.672 769.236 287.266C769.171 286.899 769.007 286.462 768.621 286.407C768.268 286.356 767.982 286.666 767.786 286.95C767.463 287.422 767.174 287.92 766.767 288.328C766.36 288.736 765.804 289.051 765.214 289.028C764.456 289 763.851 288.445 763.323 287.926C762.735 287.347 762.146 286.768 761.558 286.189C761.139 285.776 760.697 285.349 760.127 285.163C759.516 284.963 758.802 285.082 758.299 285.469C756.647 286.738 754.517 287.116 752.604 287.99C751.133 288.661 749.66 289.333 748.257 290.127C747.442 290.587 746.644 291.095 745.995 291.753C745.346 292.411 744.85 293.236 744.739 294.134C744.68 294.608 745.338 294.701 745.803 294.881C750.906 296.861 756.121 295.163 761.374 294.337C762.466 294.164 768.898 293.019 769.161 291.522Z" fill="#381905"/>
<path d="M762.354 287.449C762.943 287.242 763.256 286.587 763.218 285.989C763.18 285.392 762.863 284.844 762.513 284.347C761.726 283.228 760.74 282.253 759.759 281.283C759.507 281.034 759.248 280.779 758.924 280.624C758.6 280.468 758.191 280.426 757.88 280.606C757.338 280.918 757.36 281.669 757.044 282.192C756.833 282.542 756.472 282.782 756.123 283.011C752.446 285.413 748.781 287.727 744.672 289.419C744.108 289.651 743.515 289.891 743.134 290.351C743.498 290.776 743.632 291.367 743.772 291.9C743.912 292.433 744.144 292.999 744.649 293.264C745.035 293.467 745.509 293.45 745.938 293.35C746.775 293.155 747.505 292.682 748.245 292.262C750.155 291.175 752.253 290.388 754.428 289.943" fill="#381905"/>
<path d="M769.313 290.369C769.271 290.364 769.221 290.37 769.16 290.393C769.032 290.442 768.937 290.544 768.842 290.639C767.923 291.55 766.569 291.947 765.249 292.07C763.93 292.194 762.598 292.081 761.274 292.148C758.287 292.297 755.434 293.353 752.475 293.762C751.186 293.939 749.878 293.993 748.578 293.922C747.336 293.855 746.093 293.464 744.875 293.417C744.822 292.763 744.76 292.171 744.432 291.576C744.247 291.242 743.64 290.272 743.198 290.221C742.501 290.143 741.794 290.147 741.097 290.228C740.536 290.294 739.707 290.345 739.304 290.733C738.427 291.576 737.947 292.929 737.855 294.089C737.827 294.439 737.842 294.819 738.062 295.101C738.243 295.333 738.532 295.458 738.809 295.576C740.39 296.244 741.953 297.029 743.647 297.35C745.502 297.702 747.42 297.956 749.301 297.638C750.998 297.352 752.574 296.617 754.243 296.207C757.654 295.37 761.256 295.929 764.77 295.692C765.762 295.625 766.77 295.488 767.663 295.068C768.625 294.615 769.26 293.848 769.439 292.835C769.523 292.357 769.512 291.868 769.475 291.387C769.454 291.143 769.615 290.413 769.313 290.369Z" fill="white"/>
<path d="M746.885 292.059C746.757 292.148 746.659 292.285 746.645 292.436C746.59 293.013 747.418 293.097 747.841 293C748.372 292.877 748.393 292.207 747.918 291.978C747.738 291.892 747.528 291.877 747.328 291.903C747.17 291.923 747.013 291.969 746.885 292.059ZM747.652 292.183C747.75 292.273 747.788 292.419 747.741 292.541C747.694 292.662 747.561 292.75 747.425 292.745L747.452 292.78C747.289 292.803 747.116 292.706 747.057 292.559C746.998 292.412 747.059 292.23 747.197 292.143C747.334 292.058 747.533 292.075 747.652 292.183Z" fill="white"/>
<path d="M748.032 292.205C747.728 291.445 747.351 290.709 746.908 290.014C746.724 289.725 746.523 289.437 746.242 289.23C745.961 289.024 745.584 288.909 745.245 289.007C745.162 289.031 745.075 289.076 745.05 289.154C745.018 289.253 745.097 289.35 745.169 289.429C745.968 290.288 746.614 291.276 747.072 292.338C747.006 292.197 747.013 292.102 747.151 292.02C747.289 291.938 747.467 291.939 747.622 291.985C747.775 292.031 747.897 292.119 748.032 292.205Z" fill="white"/>
<path d="M749.134 291.037C749.005 291.127 748.908 291.263 748.894 291.415C748.839 291.992 749.667 292.076 750.09 291.978C750.621 291.855 750.642 291.186 750.168 290.957C749.988 290.87 749.778 290.856 749.578 290.882C749.42 290.902 749.263 290.947 749.134 291.037ZM749.902 291.163C750 291.253 750.038 291.398 749.991 291.521C749.943 291.642 749.811 291.729 749.675 291.725L749.701 291.76C749.538 291.783 749.365 291.686 749.306 291.54C749.247 291.393 749.308 291.211 749.446 291.124C749.583 291.036 749.783 291.054 749.902 291.163Z" fill="white"/>
<path d="M750.281 291.182C749.818 290.023 749.248 288.879 748.09 288.219C747.948 288.138 747.798 288.065 747.635 288.034C747.473 288.004 747.294 288.021 747.157 288.11C747.219 288.07 748.237 289.408 748.304 289.502C748.704 290.072 749.045 290.68 749.319 291.315C749.253 291.174 749.26 291.079 749.398 290.997C749.536 290.915 749.714 290.916 749.869 290.962C750.025 291.008 750.146 291.096 750.281 291.182Z" fill="white"/>
<path d="M751.241 290.115C751.144 290.235 751.091 290.392 751.122 290.541C751.239 291.109 752.059 290.968 752.436 290.761C752.909 290.501 752.732 289.853 752.209 289.76C752.011 289.726 751.805 289.768 751.621 289.846C751.476 289.909 751.338 289.995 751.241 290.115ZM752.015 290.03C752.136 290.09 752.215 290.22 752.205 290.349C752.195 290.479 752.094 290.598 751.962 290.63L751.998 290.657C751.848 290.722 751.654 290.676 751.554 290.551C751.454 290.426 751.459 290.234 751.566 290.114C751.672 289.995 751.869 289.958 752.015 290.03Z" fill="white"/>
<path d="M752.385 289.945C752.226 289.897 751.949 289.422 751.831 289.293C751.646 289.088 751.459 288.863 751.243 288.686C750.866 288.378 750.655 287.934 750.272 287.618C749.929 287.335 749.486 287.141 749.033 287.161C748.89 287.167 748.721 287.219 748.689 287.351C748.656 287.491 748.799 287.607 748.922 287.689C749.45 288.043 749.925 288.467 750.329 288.946C750.52 289.172 750.668 289.434 750.862 289.655C751.063 289.885 751.295 290.098 751.501 290.328C751.396 290.21 751.376 290.119 751.484 290.003C751.592 289.888 751.763 289.84 751.925 289.843C752.087 289.846 752.23 289.898 752.385 289.945Z" fill="white"/>
<path d="M753.577 288.985C753.48 289.106 753.427 289.263 753.458 289.412C753.575 289.98 754.395 289.839 754.772 289.632C755.245 289.372 755.068 288.723 754.545 288.631C754.347 288.595 754.141 288.638 753.957 288.716C753.812 288.778 753.674 288.865 753.577 288.985ZM754.351 288.9C754.471 288.96 754.551 289.089 754.541 289.219C754.531 289.348 754.43 289.468 754.298 289.499L754.334 289.526C754.184 289.592 753.989 289.545 753.89 289.42C753.79 289.295 753.795 289.104 753.902 288.983C754.008 288.864 754.205 288.827 754.351 288.9Z" fill="white"/>
<path d="M754.722 288.817C754.304 288.691 753.486 287.473 753.137 287.139C752.518 286.548 751.715 285.722 750.768 286.173C750.682 286.214 750.588 286.287 750.605 286.377C750.619 286.453 750.701 286.494 750.773 286.527C751.45 286.838 751.869 287.299 752.384 287.793C752.873 288.261 753.383 288.69 753.838 289.2C753.733 289.082 753.712 288.99 753.82 288.875C753.928 288.759 754.099 288.712 754.261 288.715C754.424 288.718 754.567 288.77 754.722 288.817Z" fill="white"/>
<path d="M756.158 287.945C756.061 288.065 756.008 288.222 756.039 288.371C756.156 288.94 756.976 288.798 757.353 288.591C757.826 288.331 757.649 287.683 757.126 287.59C756.928 287.556 756.722 287.598 756.538 287.676C756.392 287.738 756.255 287.825 756.158 287.945ZM756.931 287.86C757.051 287.92 757.131 288.05 757.121 288.18C757.111 288.308 757.01 288.428 756.878 288.46L756.914 288.487C756.764 288.552 756.57 288.506 756.47 288.381C756.37 288.256 756.376 288.064 756.482 287.944C756.588 287.824 756.785 287.787 756.931 287.86Z" fill="white"/>
<path d="M757.302 287.777C756.786 287.127 756.207 286.524 755.576 285.975C754.884 285.373 753.941 284.639 752.936 284.882C752.874 284.897 752.808 284.919 752.775 284.971C752.702 285.088 752.846 285.215 752.968 285.285C753.65 285.671 754.276 286.144 754.827 286.688C755.342 287.197 755.946 287.597 756.418 288.16C756.313 288.042 756.293 287.95 756.401 287.835C756.509 287.72 756.68 287.672 756.842 287.675C757.005 287.679 757.147 287.73 757.302 287.777Z" fill="white"/>
<path d="M758.518 286.876C758.421 286.996 758.367 287.154 758.398 287.302C758.515 287.871 759.335 287.729 759.711 287.523C760.184 287.262 760.007 286.614 759.484 286.521C759.286 286.486 759.08 286.529 758.896 286.607C758.751 286.67 758.615 286.757 758.518 286.876ZM759.292 286.791C759.412 286.851 759.492 286.981 759.482 287.111C759.472 287.239 759.37 287.359 759.238 287.391L759.274 287.418C759.124 287.483 758.931 287.437 758.831 287.312C758.731 287.187 758.735 286.995 758.842 286.875C758.948 286.756 759.146 286.719 759.292 286.791Z" fill="white"/>
<path d="M759.661 286.708C759.145 286.059 758.566 285.455 757.935 284.906C757.455 284.488 756.994 284.025 756.412 283.733C755.9 283.476 755.459 283.25 754.868 283.423C754.751 283.458 754.619 283.529 754.617 283.646C754.615 283.764 754.747 283.838 754.86 283.889C755.66 284.246 756.398 284.727 757.042 285.304C757.364 285.592 757.661 285.905 757.933 286.237C758.182 286.541 758.509 286.793 758.776 287.092C758.671 286.973 758.65 286.882 758.759 286.766C758.867 286.651 759.038 286.603 759.2 286.606C759.363 286.609 759.506 286.662 759.661 286.708Z" fill="white"/>
<path d="M746.707 293.79C751.936 292.237 756.957 289.953 761.812 287.746L761.74 287.603C756.89 289.808 751.875 292.088 746.658 293.639L746.707 293.79Z" fill="white"/>
<path d="M768.844 292.258C768.206 292.917 767.293 293.284 766.369 293.449C765.445 293.614 764.497 293.595 763.557 293.59C759.578 293.57 755.517 293.841 751.828 295.263C751.879 295.413 751.876 295.66 751.928 295.81C755.706 294.544 759.807 294.022 763.809 294.175C764.798 294.214 765.801 294.295 766.767 294.088C767.732 293.882 768.474 293.133 768.844 292.258Z" fill="#381905"/>
<path d="M760.378 291.256C760.617 291.45 761.003 291.449 761.236 291.245C761.485 291.026 761.502 290.625 761.274 290.387L761.151 290.494C761.317 290.667 761.303 290.968 761.123 291.128C760.943 291.286 760.628 291.276 760.456 291.108C760.287 290.94 760.29 290.635 760.461 290.469C760.631 290.304 760.959 290.293 761.132 290.449L761.243 290.331C760.997 290.127 760.574 290.131 760.342 290.358C760.108 290.586 760.105 290.987 760.336 291.217C760.349 291.231 760.363 291.243 760.378 291.256Z" fill="white"/>
<path d="M755.857 291.248C755.998 290.975 756.377 290.845 756.667 290.972L756.657 290.993H756.711L756.73 291.004C757.003 291.161 757.107 291.533 756.949 291.798C756.792 292.064 756.406 292.171 756.123 292.029C756.086 292.01 756.05 291.988 756.019 291.963C755.811 291.793 755.734 291.487 755.857 291.248ZM756.664 291.151H756.597V291.116C756.388 291.026 756.107 291.122 756.006 291.318C755.905 291.514 755.999 291.786 756.201 291.888C756.404 291.99 756.692 291.91 756.805 291.719C756.908 291.547 756.853 291.303 756.696 291.175C756.685 291.166 756.675 291.159 756.664 291.151Z" fill="white"/>
<path d="M863.055 89.1875L850.614 92.9912C850.679 93.0456 850.742 93.1018 850.807 93.1552C844.894 102.639 838.98 112.121 833.067 121.605C830.959 124.986 828.761 128.243 827.031 131.802C826.864 132.145 826.708 132.585 826.968 132.872C827.138 133.06 827.423 133.098 827.658 133.205C828.103 133.408 828.368 133.867 828.454 134.33C828.54 134.792 828.474 135.266 828.42 135.733C828.127 138.268 828.187 140.84 828.592 143.361C828.794 144.616 829.187 145.828 829.414 147.072C829.569 147.922 829.819 148.873 830.929 149.006C831.179 146.044 831.429 143.082 831.679 140.121C831.702 139.846 831.778 139.507 832.057 139.437C832.276 139.382 832.502 139.545 832.589 139.744C832.675 139.943 832.658 140.168 832.642 140.384C832.397 143.626 832.79 146.911 833.794 150.017C833.902 150.352 834.024 150.696 834.272 150.956C834.519 151.215 834.926 151.37 835.265 151.232C835.797 151.017 835.819 150.317 835.754 149.77C835.475 147.413 835.196 145.056 834.918 142.7C834.845 142.087 834.786 141.431 834.931 140.823C834.987 140.59 835.14 139.993 835.369 139.869C835.965 139.546 835.917 140.799 835.994 141.197C836.292 142.743 836.711 144.267 837.247 145.752C837.567 146.64 838.047 147.623 838.994 147.883C839.239 147.949 839.53 147.951 839.72 147.789C840.059 147.5 839.845 146.974 839.628 146.592C838.967 145.43 838.461 144.185 838.156 142.894C837.963 142.079 837.664 141.2 837.72 140.356C837.824 138.787 838.587 140.388 838.91 140.967C839.707 142.398 840.655 143.954 842.273 144.448C842.632 144.558 843.16 144.514 843.215 144.158C843.245 143.965 843.105 143.791 842.976 143.64C840.908 141.223 839.538 138.291 838.935 135.23C838.659 133.828 838.376 132.185 838.642 130.771C838.952 129.122 840.104 127.67 841.115 126.352C844.254 122.262 847.4 118.158 850.98 114.402C852.586 112.717 853.918 110.649 855.32 108.78C856.908 106.666 858.413 104.49 859.692 102.191C861.847 98.3168 863.358 94.0335 863.387 89.6481C863.277 89.4926 863.163 89.341 863.055 89.1875Z" fill="#A2493B"/>
<path d="M829.472 129.419C827.321 130.582 825.638 132.494 824.754 134.691C824.246 135.954 823.884 139.983 826.481 139.553C827.249 139.426 827.723 138.664 827.878 137.935C828.033 137.207 827.979 136.442 828.21 135.731C828.56 134.659 829.51 133.866 830.494 133.248" fill="#A2493B"/>
<path d="M690.346 66.103C691.735 60.7535 695.812 56.0649 701.139 53.9261C706.466 51.7882 712.921 52.3184 717.69 55.4308C722.459 58.5432 725.329 64.1844 724.772 69.6693C724.349 73.8277 722.131 77.6305 719.548 81.0051C717.823 83.2593 715.835 85.4449 713.206 86.6702C710.155 88.0919 706.511 88.05 703.27 87.0812C699.766 86.0332 694.83 83.6837 692.75 80.6313C689.919 76.4796 689.109 70.8688 690.346 66.103Z" fill="#F14052"/>
<path d="M714.623 85.926C716.689 83.9931 719.639 82.9519 722.526 83.1359C725.075 83.299 727.539 84.4146 729.304 86.172C729.741 86.6068 730.47 86.6059 730.957 86.2235C731.958 85.4368 732.754 84.4823 733.328 83.3781C733.646 82.7659 733.343 82.0079 732.67 81.7723C730.375 80.9666 728.179 79.5601 726.805 77.693C725.196 75.5056 724.42 72.7727 724.652 70.1104" fill="#381905"/>
<path d="M728.656 73.0379C727.782 72.1482 726.851 71.2243 725.632 70.8581C724.947 70.6521 724.216 70.6388 723.498 70.6264C722.577 70.6111 721.656 70.5968 720.734 70.5816C720.427 70.5768 720.103 70.5749 719.835 70.7189C719.324 70.9925 719.238 71.6409 719.078 72.1788C718.75 73.283 717.852 74.2184 716.728 74.6265C716.388 74.7505 716.026 74.8296 715.711 75.0041C714.821 75.4962 715.127 76.4202 715.815 76.9084C717.51 78.1108 720.019 77.2574 721.354 75.9186C721.644 75.6278 721.932 75.2835 722.346 75.2092C722.653 75.1539 722.962 75.2616 723.258 75.356C724.661 75.7984 726.166 75.9453 727.634 75.7832" fill="#A2493B"/>
<path d="M797.396 104.945C797.291 104.945 797.201 104.868 797.191 104.767C796.893 101.741 796.215 98.3506 795.56 95.0704C795.078 92.655 794.578 90.1596 794.255 87.9044C793.118 79.968 794.061 71.8037 796.985 64.2944C797.024 64.1924 797.141 64.1409 797.251 64.1781C797.358 64.2162 797.412 64.3297 797.372 64.4308C794.473 71.879 793.535 79.9785 794.665 87.852C794.986 90.0947 795.462 92.4767 795.965 94.996C796.623 98.2848 797.302 101.685 797.601 104.73C797.612 104.838 797.528 104.935 797.416 104.943C797.409 104.945 797.403 104.945 797.396 104.945Z" fill="#381905"/>
<path d="M838.441 85.0343C838.394 85.0486 838.315 85.0047 838.275 84.9542C834.4 79.9909 830.239 75.1249 825.909 70.4888C825.58 70.9169 824.994 71.284 824.539 71.489C824.465 71.5186 824.381 71.5109 824.32 71.4633C824.259 71.4156 824.231 71.3384 824.251 71.2649C824.341 70.9064 824.553 70.5822 824.845 70.3429C824.143 69.8318 823.232 69.5686 822.354 69.6363C822.259 69.6582 822.162 69.581 822.138 69.4875C822.114 69.3941 822.164 69.2978 822.256 69.2587C822.84 69.0165 823.343 68.595 823.671 68.0734C823.731 67.979 823.856 67.9523 823.955 68.0057C824.052 68.062 824.084 68.1831 824.026 68.2765C823.786 68.6589 823.461 68.9945 823.082 69.2577C823.905 69.3493 824.705 69.682 825.318 70.2055C825.366 70.2475 825.392 70.3076 825.387 70.3696C825.381 70.4315 825.345 70.4868 825.289 70.5202C825.154 70.6003 825.034 70.7014 824.934 70.8187C825.265 70.6013 825.565 70.3352 825.691 70.0768C825.72 70.0167 825.78 69.9748 825.847 69.9652C825.928 69.9557 825.986 69.9795 826.031 70.0291C830.379 74.671 834.558 79.5466 838.452 84.5203C841.477 81.0665 844.786 77.7958 848.29 74.7969C848.372 74.7244 848.505 74.7311 848.58 74.8122C848.656 74.8932 848.649 75.0172 848.564 75.0896C845.011 78.1315 841.659 81.4537 838.6 84.9647C838.56 85.0085 838.502 85.0343 838.441 85.0343Z" fill="#381905"/>
<path d="M163.058 24.3623C160.101 25.5371 157.714 27.9515 156.659 30.836C155.909 32.8861 155.81 35.1279 154.914 37.1247C153.933 39.3121 151.988 41.0886 149.654 41.9296C152.636 38.9078 153.692 34.2821 152.297 30.3525" fill="#381905"/>
<path d="M164.22 33.7537C164.349 33.5143 164.632 33.2779 164.885 33.399C165.021 33.4638 165.089 33.6097 165.14 33.746C165.228 33.9816 165.296 34.2238 165.343 34.4698C165.393 34.732 165.42 35.0066 165.342 35.2622C165.183 35.7847 164.446 36.0708 164.104 35.5368C163.834 35.1163 164.01 34.1446 164.22 33.7537Z" fill="#381905"/>
<path d="M166.707 44.2504C167.402 44.2256 167.237 45.0558 166.827 45.3154C166.59 45.4652 166.27 45.4795 166.015 45.3631C165.759 45.2467 165.496 45.1322 165.311 44.9155C165.047 44.6073 164.94 44.2027 164.895 43.8066C165.192 44.1979 165.729 44.4098 166.229 44.3325C166.388 44.3077 166.544 44.2561 166.707 44.2504Z" fill="#381905"/>
<path d="M165.693 46.3809C166.541 46.7597 166.672 45.3016 165.774 45.0668C164.809 44.8149 165.162 46.1432 165.693 46.3809Z" fill="#381905"/>
<path d="M175.711 132.369C177.717 127.201 177.11 121.137 173.966 116.513C170.822 111.889 165.171 108.867 159.392 108.883C153.613 108.899 147.913 112.026 145.14 116.86C143.038 120.526 142.63 124.86 142.775 129.035C142.872 131.824 143.227 134.697 144.679 137.12C146.364 139.932 149.402 141.851 152.653 142.787C156.169 143.799 161.636 144.503 165.156 143.094C169.945 141.179 173.924 136.973 175.711 132.369Z" fill="#F14052"/>
<path d="M143.945 135.745C143.377 133.039 141.551 130.596 139.054 129.201C136.85 127.969 134.155 127.57 131.659 128.078C131.042 128.203 130.439 127.812 130.262 127.234C129.898 126.047 129.803 124.831 129.98 123.61C130.078 122.933 130.775 122.47 131.471 122.635C133.845 123.199 136.489 123.213 138.726 122.406C141.347 121.46 143.6 119.616 144.977 117.289" fill="#381905"/>
<path d="M136.423 128.561C134.986 127.17 133.201 126.019 131.67 124.724C131.612 124.674 131.024 124.249 131.06 124.162C131.06 124.162 133.031 119.426 133.93 117.267C133.744 117.158 133.574 117.069 133.52 117.091C133.652 117.039 133.86 116.955 134.1 116.86C134.266 116.461 134.371 116.208 134.371 116.208C134.774 116.217 135.186 116.245 135.602 116.278C136.221 116.328 137.362 115.588 137.978 115.401C138.754 115.166 139.571 114.958 140.386 115.04C141.316 115.134 145.818 116.876 144.257 118.121C142.152 119.799 145.99 121.851 147.443 122.466C149.003 123.126 150.696 123.453 152.392 123.635C152.749 123.673 153.115 123.708 153.439 123.856C153.763 124.005 154.04 124.297 154.054 124.638C154.076 125.205 153.428 125.561 152.861 125.735C151.549 126.136 150.15 126.272 148.78 126.14C148.445 126.108 145.72 125.295 146.099 126.442C146.35 127.203 148.653 127.262 149.311 127.325C150.677 127.455 152.06 127.418 153.415 127.211C153.882 127.139 154.356 127.048 154.824 127.117C155.291 127.186 155.76 127.456 155.901 127.887C156.013 128.228 155.895 128.611 155.669 128.897C155.443 129.183 155.122 129.386 154.791 129.556C153.443 130.248 151.872 130.463 150.343 130.407C149.105 130.361 147.884 130.147 146.675 129.903C146.281 129.824 144.24 129.366 144.954 130.438C145.397 131.102 146.962 131.329 147.698 131.405C148.783 131.515 149.879 131.412 150.965 131.311C151.521 131.26 152.102 131.212 152.618 131.415C153.134 131.618 153.549 132.161 153.392 132.672C153.221 133.227 152.525 133.442 151.925 133.527C149.38 133.889 146.716 133.438 144.457 132.263C144.223 132.141 143.861 132.047 143.751 132.278C143.663 132.462 143.851 132.654 144.022 132.774C144.679 133.234 145.384 133.632 146.124 133.959C146.451 134.104 146.792 134.239 147.064 134.465C147.336 134.691 147.533 135.034 147.472 135.372C147.388 135.838 146.842 136.121 146.348 136.101C145.853 136.08 145.404 135.834 144.981 135.588C142.074 133.896 139.348 131.859 137.173 129.346C136.934 129.075 136.684 128.814 136.423 128.561Z" fill="#E87578"/>
<path d="M513.897 52.639C520.023 56.8261 512.935 65.1925 506.953 61.7864C500.721 58.2383 507.704 48.4062 513.897 52.639Z" fill="white"/>
<path d="M213.084 101.038C213.896 100.277 214.759 99.4879 215.857 99.2047C216.474 99.0454 217.124 99.0588 217.764 99.0741C218.584 99.0931 219.404 99.1122 220.224 99.1303C220.497 99.137 220.785 99.1465 221.018 99.2838C221.462 99.5451 221.513 100.125 221.635 100.608C221.884 101.602 222.647 102.465 223.631 102.868C223.929 102.99 224.247 103.073 224.521 103.239C225.294 103.708 224.986 104.519 224.356 104.929C222.802 105.94 220.604 105.092 219.468 103.855C219.221 103.586 218.978 103.271 218.613 103.19C218.343 103.13 218.063 103.215 217.796 103.288C216.531 103.632 215.187 103.71 213.888 103.515" fill="#E87578"/>
<path d="M790.201 33.6046C790.413 33.6094 790.605 33.7439 790.719 33.9145C790.834 34.0852 790.883 34.2874 790.917 34.4876C790.962 34.7489 790.983 35.0226 790.896 35.2734C790.669 35.9256 789.831 35.9351 789.573 35.3334C789.368 34.8529 789.435 33.5884 790.201 33.6046Z" fill="#381905"/>
</svg>
