<svg width="66" height="66" viewBox="0 0 66 66" fill="none" xmlns="http://www.w3.org/2000/svg">
<path d="M8.29707 13.7998H4.3696C2.51147 13.7998 1 15.3113 1 17.1694V39.2302C1 41.0883 2.51147 42.5998 4.3696 42.5998H8.29707C10.1552 42.5998 11.6667 41.0883 11.6667 39.2302V17.1694C11.6667 15.3113 10.1552 13.7998 8.29707 13.7998ZM9.53333 39.2302C9.53333 39.9118 8.97867 40.4665 8.29707 40.4665H4.3696C3.688 40.4665 3.13333 39.9118 3.13333 39.2302V17.1694C3.13333 16.4878 3.688 15.9331 4.3696 15.9331H8.29707C8.97867 15.9331 9.53333 16.4878 9.53333 17.1694V39.2302Z" fill="white" stroke="white" stroke-width="1.06667"/>
<path d="M61.6301 28.7334H57.7026C55.8445 28.7334 54.333 30.2449 54.333 32.103V54.1638C54.333 56.0219 55.8445 57.5334 57.7026 57.5334H61.6301C63.4882 57.5334 64.9997 56.0219 64.9997 54.1638V32.103C64.9997 30.2449 63.4882 28.7334 61.6301 28.7334ZM62.8663 54.1638C62.8663 54.8454 62.3117 55.4001 61.6301 55.4001H57.7026C57.021 55.4001 56.4663 54.8454 56.4663 54.1638V32.103C56.4663 31.4214 57.021 30.8667 57.7026 30.8667H61.6301C62.3117 30.8667 62.8663 31.4214 62.8663 32.103V54.1638Z" fill="white" stroke="white" stroke-width="1.06667"/>
<path d="M42.6002 27.667C39.0706 27.667 36.2002 30.5374 36.2002 34.067C36.2002 37.5966 39.0706 40.467 42.6002 40.467C46.1298 40.467 49.0002 37.5966 49.0002 34.067C49.0002 30.5374 46.1298 27.667 42.6002 27.667ZM42.6002 38.3337C40.2471 38.3337 38.3335 36.4201 38.3335 34.067C38.3335 31.7139 40.2471 29.8003 42.6002 29.8003C44.9533 29.8003 46.8669 31.7139 46.8669 34.067C46.8669 36.4201 44.9533 38.3337 42.6002 38.3337Z" fill="white" stroke="white" stroke-width="1.06667"/>
<path d="M30.8665 1C30.2777 1 29.7998 1.4768 29.7998 2.06667V63.9333C29.7998 64.5232 30.2777 65 30.8665 65C31.4553 65 31.9331 64.5232 31.9331 63.9333V2.06667C31.9331 1.4768 31.4553 1 30.8665 1Z" fill="white" stroke="white" stroke-width="1.06667"/>
<path d="M38.3337 10.6001C37.7449 10.6001 37.267 11.0769 37.267 11.6668C37.267 12.2567 37.7449 12.7335 38.3337 12.7335H44.7337C45.3225 12.7335 45.8003 12.2567 45.8003 11.6668C45.8003 11.0769 45.3225 10.6001 44.7337 10.6001H42.6003V2.4252C42.6003 1.91427 42.275 1.46307 41.7918 1.29987C41.3086 1.13987 40.7753 1.30307 40.4659 1.71373L37.4803 5.69347C37.1262 6.16387 37.2222 6.83267 37.6937 7.18573C38.1673 7.53987 38.835 7.44493 39.187 6.9724L40.467 5.2668V10.6001H38.3337Z" fill="white" stroke="white" stroke-width="1.06667"/>
<path d="M23.4003 10.5998H20.1917C21.4856 9.29099 22.4808 7.77632 23.0749 6.75659C23.7416 5.61205 23.764 4.22965 23.1357 3.05632C22.5235 1.91605 21.3971 1.19072 20.1171 1.11712C17.9101 1.00299 15.9336 2.93365 15.9336 5.26645C15.9336 5.85632 16.4115 6.33312 17.0003 6.33312C17.5891 6.33312 18.0669 5.85632 18.0669 5.26645C18.0669 4.20832 18.9352 3.24405 19.8888 3.24405L19.9965 3.24725C20.5352 3.27819 20.9939 3.57792 21.2563 4.06645C21.5315 4.58059 21.5229 5.18539 21.2328 5.68352C20.3933 7.12352 18.6675 9.68885 16.5405 10.7054C16.4915 10.7289 16.4595 10.7694 16.4168 10.7982C16.3507 10.843 16.2824 10.8825 16.228 10.9401C16.18 10.9913 16.1501 11.051 16.1139 11.1097C16.0776 11.1673 16.036 11.2195 16.0115 11.2846C15.9827 11.3593 15.9763 11.4382 15.9645 11.5182C15.956 11.5673 15.9336 11.6131 15.9336 11.6665C15.9336 11.675 15.9379 11.6814 15.9379 11.6889C15.9389 11.7603 15.9645 11.8297 15.9805 11.9011C15.9965 11.9694 16.0029 12.0398 16.0317 12.1027C16.0349 12.1102 16.0339 12.1187 16.0381 12.1262C16.0893 12.2318 16.1576 12.3225 16.2344 12.4025C16.2536 12.4217 16.276 12.4355 16.2952 12.4537C16.3688 12.5187 16.4488 12.5731 16.5352 12.6158C16.5672 12.6318 16.5981 12.6457 16.6323 12.6585C16.7507 12.7022 16.8723 12.7331 16.9992 12.7331H17.0003H23.4003C23.9891 12.7331 24.4669 12.2563 24.4669 11.6665C24.4669 11.0766 23.9891 10.5998 23.4003 10.5998Z" fill="white" stroke="white" stroke-width="1.06667"/>
</svg>
