<svg width="24" height="24" viewBox="0 0 24 24" fill="none" xmlns="http://www.w3.org/2000/svg">
<path d="M22 20.0002V12.1742C22.0001 11.6297 21.889 11.0909 21.6735 10.5909C21.458 10.0909 21.1428 9.64007 20.747 9.26615L13.374 2.29815C13.0027 1.94708 12.511 1.75146 12 1.75146C11.489 1.75146 10.9973 1.94708 10.626 2.29815L3.253 9.26615C2.85722 9.64007 2.54195 10.0909 2.3265 10.5909C2.11104 11.0909 1.99994 11.6297 2 12.1742V20.0002C2 20.5306 2.21071 21.0393 2.58579 21.4144C2.96086 21.7894 3.46957 22.0002 4 22.0002H20C20.5304 22.0002 21.0391 21.7894 21.4142 21.4144C21.7893 21.0393 22 20.5306 22 20.0002Z" stroke="white" stroke-width="2.17" stroke-linecap="round" stroke-linejoin="round"/>
</svg>
