<svg width="24" height="17" viewBox="0 0 24 17" fill="none" xmlns="http://www.w3.org/2000/svg">
<path d="M3.6 7.13404C4.92375 7.13404 6 6.06765 6 4.75603C6 3.44441 4.92375 2.37801 3.6 2.37801C2.27625 2.37801 1.2 3.44441 1.2 4.75603C1.2 6.06765 2.27625 7.13404 3.6 7.13404ZM20.4 7.13404C21.7238 7.13404 22.8 6.06765 22.8 4.75603C22.8 3.44441 21.7238 2.37801 20.4 2.37801C19.0763 2.37801 18 3.44441 18 4.75603C18 6.06765 19.0763 7.13404 20.4 7.13404ZM21.6 8.32305H19.2C18.54 8.32305 17.9438 8.58686 17.5088 9.01416C19.02 9.83532 20.0925 11.3179 20.325 13.0791H22.8C23.4638 13.0791 24 12.5477 24 11.8901V10.7011C24 9.38944 22.9238 8.32305 21.6 8.32305ZM12 8.32305C14.3213 8.32305 16.2 6.46151 16.2 4.16153C16.2 1.86154 14.3213 0 12 0C9.67875 0 7.8 1.86154 7.8 4.16153C7.8 6.46151 9.67875 8.32305 12 8.32305ZM14.88 9.51206H14.5688C13.7888 9.88362 12.9225 10.1066 12 10.1066C11.0775 10.1066 10.215 9.88362 9.43125 9.51206H9.12C6.735 9.51206 4.8 11.4293 4.8 13.7925V14.8626C4.8 15.8472 5.60625 16.6461 6.6 16.6461H17.4C18.3938 16.6461 19.2 15.8472 19.2 14.8626V13.7925C19.2 11.4293 17.265 9.51206 14.88 9.51206ZM6.49125 9.01416C6.05625 8.58686 5.46 8.32305 4.8 8.32305H2.4C1.07625 8.32305 0 9.38944 0 10.7011V11.8901C0 12.5477 0.53625 13.0791 1.2 13.0791H3.67125C3.9075 11.3179 4.98 9.83532 6.49125 9.01416Z" fill="white"/>
</svg>
