<svg width="30" height="30" viewBox="0 0 52 52" fill="none" xmlns="http://www.w3.org/2000/svg">
<path d="M37.129 27.5782C39.2913 25.3852 40.7568 22.6023 41.3412 19.5792C41.9257 16.5562 41.603 13.4279 40.4137 10.5877C39.2244 7.74744 37.2216 5.32193 34.657 3.61604C32.0925 1.91015 29.0806 1 26 1C22.9194 1 19.9075 1.91015 17.343 3.61604C14.7784 5.32193 12.7756 7.74744 11.5863 10.5877C10.397 13.4279 10.0743 16.5562 10.6587 19.5792C11.2432 22.6023 12.7087 25.3852 14.871 27.5782C10.7893 29.1818 7.28426 31.9748 4.81076 35.5944C2.33726 39.2141 1.00955 43.4934 1 47.8767C0.999768 48.2869 1.08044 48.6932 1.2374 49.0722C1.39437 49.4512 1.62454 49.7956 1.91477 50.0857C2.205 50.3758 2.54959 50.6058 2.92884 50.7627C3.30809 50.9196 3.71455 51.0002 4.125 51H47.875C48.2854 51.0002 48.6919 50.9196 49.0712 50.7627C49.4504 50.6058 49.795 50.3758 50.0852 50.0857C50.3755 49.7956 50.6056 49.4512 50.7626 49.0722C50.9196 48.6932 51.0002 48.2869 51 47.8767C50.9904 43.4934 49.6627 39.2141 47.1892 35.5944C44.7157 31.9748 41.2107 29.1818 37.129 27.5782ZM26 7.27354C27.8542 7.27354 29.6668 7.82307 31.2085 8.85266C32.7502 9.88224 33.9518 11.3456 34.6614 13.0578C35.3709 14.7699 35.5566 16.6539 35.1949 18.4715C34.8331 20.2891 33.9402 21.9586 32.6291 23.2691C31.318 24.5795 29.6475 25.4719 27.829 25.8334C26.0104 26.1949 24.1254 26.0094 22.4123 25.3002C20.6993 24.591 19.2351 23.39 18.205 21.8492C17.1748 20.3083 16.625 18.4967 16.625 16.6435C16.6278 14.1593 17.6164 11.7776 19.3739 10.021C21.1315 8.26437 23.5144 7.27629 26 7.27354ZM7.5613 44.7534C8.2874 41.2286 10.2068 38.0617 12.9962 35.786C15.7855 33.5104 19.2744 32.2652 22.875 32.2601H29.125C32.7256 32.2652 36.2145 33.5104 39.0038 35.786C41.7932 38.0617 43.7126 41.2286 44.4387 44.7534H7.5613Z" fill="#00453F" stroke="#00453F" stroke-width="2"/>
</svg>
