<svg width="80" height="80" viewBox="0 0 80 80" fill="none" xmlns="http://www.w3.org/2000/svg">
<g id="Add-sidebar">
<g clip-path="url(#clip0_233_900)">
<g id="Frame 26">
<rect x="10" y="10" width="60" height="60" rx="30" fill="#3DBDA7"/>
<g id="vuesax/linear/add">
<g id="vuesax/linear/add_2">
<g id="add">
<path id="Vector" d="M30 40H50" stroke="#292D32" stroke-width="2" stroke-linecap="round" stroke-linejoin="round"/>
<path id="Vector_2" d="M40 50V30" stroke="#292D32" stroke-width="2" stroke-linecap="round" stroke-linejoin="round"/>
</g>
</g>
</g>
</g>
<g id="Add-sidebar_2">
<rect x="1" y="1" width="78" height="78" rx="15" stroke="#3DBDA7" stroke-width="2" stroke-miterlimit="1.97146" stroke-dasharray="48 24 16 32"/>
<g id="Frame 26_2">
<rect x="10" y="10" width="60" height="60" rx="30" fill="#3DBDA7"/>
<g id="logout-svgrepo-com 1">
<rect x="63" y="59" width="38" height="38" transform="rotate(180 63 59)" stroke="black"/>
<g id="logout-svgrepo-com (1) 1">
<path id="Vector_3" fill-rule="evenodd" clip-rule="evenodd" d="M27.833 47.792C27.833 51.3128 30.6872 54.167 34.208 54.167H41.9997C45.1292 54.167 47.6663 51.6299 47.6663 48.5003V47.0837C47.6663 46.3013 47.0321 45.667 46.2497 45.667C45.4672 45.667 44.833 46.3013 44.833 47.0837V48.5003C44.833 50.0651 43.5645 51.3337 41.9997 51.3337H34.208C32.252 51.3337 30.6663 49.748 30.6663 47.792V32.2087C30.6663 30.2527 32.252 28.667 34.208 28.667H41.9997C43.5645 28.667 44.833 29.9355 44.833 31.5003V32.917C44.833 33.6994 45.4672 34.3337 46.2497 34.3337C47.0321 34.3337 47.6663 33.6994 47.6663 32.917V31.5003C47.6663 28.3708 45.1292 25.8337 41.9997 25.8337H34.208C30.6872 25.8337 27.833 28.6878 27.833 32.2087V47.792ZM50.9146 45.2521C51.4678 45.8053 52.3649 45.8053 52.9181 45.2521L57.1681 41.0021C57.7213 40.4488 57.7213 39.5518 57.1681 38.9986L52.9181 34.7486C52.3649 34.1954 51.4678 34.1954 50.9146 34.7486C50.3614 35.3018 50.3614 36.1988 50.9146 36.7521L52.7462 38.5837H40.583C39.8006 38.5837 39.1663 39.2179 39.1663 40.0003C39.1663 40.7828 39.8006 41.417 40.583 41.417H52.7462L50.9146 43.2486C50.3614 43.8018 50.3614 44.6988 50.9146 45.2521Z" fill="#393A3C"/>
</g>
</g>
</g>
</g>
</g>
<rect x="1" y="1" width="78" height="78" rx="15" stroke="#3DBDA7" stroke-width="2" stroke-miterlimit="1.97146" stroke-dasharray="48 24 16 32"/>
</g>
<defs>
<clipPath id="clip0_233_900">
<rect width="80" height="80" rx="16" fill="white"/>
</clipPath>
</defs>
</svg>
