<svg width="56" height="56" viewBox="0 0 56 56" fill="none" xmlns="http://www.w3.org/2000/svg">
<path d="M52.502 28.544C52.502 26.5296 52.3352 25.0596 51.9742 23.5352H28.502V32.6273H42.2797C42.002 34.8869 40.5019 38.2896 37.1685 40.5761L37.1218 40.8806L44.5433 46.5149L45.0575 46.5652C49.7797 42.2913 52.502 36.0029 52.502 28.544Z" fill="#4285F4"/>
<path d="M28.5013 52.4993C35.2512 52.4993 40.9177 50.3215 45.0568 46.5647L37.1678 40.5757C35.0568 42.0186 32.2234 43.0257 28.5013 43.0257C21.8903 43.0257 16.2792 38.7519 14.279 32.8447L13.9858 32.869L6.26889 38.7219L6.16797 38.9969C10.279 47.0001 18.7235 52.4993 28.5013 52.4993Z" fill="#34A853"/>
<path d="M14.2796 32.8455C13.7518 31.3211 13.4464 29.6876 13.4464 27.9999C13.4464 26.3121 13.7518 24.6788 14.2518 23.1544L14.2379 22.8296L6.42419 16.8828L6.16855 17.002C4.47418 20.3232 3.50195 24.0526 3.50195 27.9999C3.50195 31.9471 4.47418 35.6765 6.16855 38.9976L14.2796 32.8455Z" fill="#FBBC05"/>
<path d="M28.5014 12.9733C33.1958 12.9733 36.3624 14.9605 38.1681 16.6212L45.2236 9.87C40.8904 5.92279 35.2514 3.5 28.5014 3.5C18.7235 3.5 10.2791 8.99885 6.16797 17.0021L14.2513 23.1544C16.2793 17.2472 21.8903 12.9733 28.5014 12.9733Z" fill="#EB4335"/>
</svg>
