<svg width="30" height="30" viewBox="0 0 30 30" fill="none" xmlns="http://www.w3.org/2000/svg">
<path d="M15 18.75C17.0711 18.75 18.75 17.0711 18.75 15C18.75 12.9289 17.0711 11.25 15 11.25C12.9289 11.25 11.25 12.9289 11.25 15C11.25 17.0711 12.9289 18.75 15 18.75Z" stroke="white" stroke-width="3"/>
<path d="M17.2069 2.6903C16.7474 2.5 16.165 2.5 15.0001 2.5C13.8352 2.5 13.2529 2.5 12.7934 2.6903C12.1808 2.94404 11.6941 3.43073 11.4404 4.04329C11.3246 4.32293 11.2792 4.64813 11.2615 5.12249C11.2354 5.8196 10.8779 6.46486 10.2738 6.81366C9.66967 7.16245 8.93211 7.14943 8.31536 6.82345C7.89568 6.60163 7.59138 6.47828 7.29129 6.43878C6.63392 6.35223 5.96909 6.53036 5.44307 6.934C5.04854 7.23673 4.75733 7.74113 4.17491 8.74991C3.59248 9.75871 3.30127 10.2631 3.23636 10.7561C3.14982 11.4135 3.32796 12.0783 3.73159 12.6044C3.91582 12.8445 4.17474 13.0463 4.57661 13.2988C5.16737 13.67 5.54748 14.3024 5.54744 15C5.54741 15.6976 5.16731 16.3299 4.57659 16.701C4.17468 16.9536 3.91572 17.1555 3.73147 17.3956C3.32783 17.9216 3.14969 18.5864 3.23624 19.2438C3.30114 19.7368 3.59236 20.2413 4.17478 21.25C4.75722 22.2588 5.04843 22.7633 5.44294 23.0659C5.96897 23.4695 6.63379 23.6476 7.29117 23.5611C7.59123 23.5216 7.89552 23.3983 8.31517 23.1765C8.93196 22.8505 9.66957 22.8375 10.2737 23.1863C10.8779 23.5351 11.2354 24.1804 11.2615 24.8776C11.2793 25.3519 11.3246 25.6771 11.4404 25.9568C11.6941 26.5693 12.1808 27.056 12.7934 27.3098C13.2529 27.5 13.8352 27.5 15.0001 27.5C16.165 27.5 16.7474 27.5 17.2069 27.3098C17.8194 27.056 18.3061 26.5693 18.5597 25.9568C18.6756 25.6771 18.721 25.3519 18.7387 24.8775C18.7647 24.1804 19.1222 23.5351 19.7264 23.1863C20.3305 22.8374 21.0681 22.8505 21.685 23.1765C22.1046 23.3983 22.4089 23.5215 22.7089 23.561C23.3662 23.6476 24.0311 23.4695 24.5571 23.0659C24.9516 22.7631 25.2429 22.2588 25.8252 21.2499C26.4077 20.2411 26.699 19.7368 26.7639 19.2438C26.8504 18.5864 26.6722 17.9215 26.2686 17.3955C26.0844 17.1554 25.8254 16.9535 25.4235 16.701C24.8329 16.3299 24.4527 15.6975 24.4527 14.9999C24.4527 14.3023 24.8329 13.6701 25.4235 13.299C25.8255 13.0464 26.0845 12.8446 26.2687 12.6044C26.6724 12.0784 26.8505 11.4136 26.764 10.7562C26.6991 10.2632 26.4079 9.75879 25.8254 8.75C25.243 7.74121 24.9517 7.23681 24.5572 6.93409C24.0312 6.53045 23.3664 6.35231 22.709 6.43886C22.409 6.47836 22.1047 6.6017 21.685 6.8235C21.0682 7.14949 20.3306 7.16253 19.7265 6.8137C19.1222 6.46489 18.7647 5.81958 18.7387 5.12243C18.721 4.6481 18.6756 4.32291 18.5597 4.04329C18.3061 3.43073 17.8194 2.94404 17.2069 2.6903Z" stroke="white" stroke-width="3"/>
</svg>
