<svg width="32" height="32" viewBox="0 0 58 58" fill="none" xmlns="http://www.w3.org/2000/svg">
<path fill-rule="evenodd" clip-rule="evenodd" d="M38.6142 4H19.3858C15.2825 4.02268 11.3563 5.67446 8.47097 8.592C5.58561 11.5096 3.97742 15.4539 4.00024 19.5571V38.4429C3.97742 42.5461 5.58561 46.4904 8.47097 49.4079C11.3563 52.3254 15.2825 53.9775 19.3858 54H38.6142C42.7174 53.9775 46.6434 52.3254 49.5288 49.4079C52.4144 46.4904 54.0223 42.5461 53.9998 38.4429V19.5571C54.0223 15.4539 52.4144 11.5096 49.5288 8.592C46.6434 5.67446 42.7174 4.02268 38.6142 4Z" stroke="#00453F" stroke-width="7" stroke-linecap="round" stroke-linejoin="round"/>
<path d="M14.7147 18.2852C13.2354 18.2852 12.0361 19.4844 12.0361 20.9637C12.0361 22.443 13.2354 23.6423 14.7147 23.6423V18.2852ZM29.0002 23.6423C30.4794 23.6423 31.6787 22.443 31.6787 20.9637C31.6787 19.4844 30.4794 18.2852 29.0002 18.2852V23.6423ZM26.3216 20.9637C26.3216 22.443 27.5209 23.6423 29.0002 23.6423C30.4794 23.6423 31.6787 22.443 31.6787 20.9637H26.3216ZM31.6787 14.7137C31.6787 13.2344 30.4794 12.0352 29.0002 12.0352C27.5209 12.0352 26.3216 13.2344 26.3216 14.7137H31.6787ZM29.0002 18.2852C27.5209 18.2852 26.3216 19.4844 26.3216 20.9637C26.3216 22.443 27.5209 23.6423 29.0002 23.6423V18.2852ZM41.5 23.6423C42.9793 23.6423 44.1785 22.443 44.1785 20.9637C44.1785 19.4844 42.9793 18.2852 41.5 18.2852V23.6423ZM41.5 18.2852C40.0207 18.2852 38.8215 19.4844 38.8215 20.9637C38.8215 22.443 40.0207 23.6423 41.5 23.6423V18.2852ZM43.2857 23.6423C44.765 23.6423 45.9642 22.443 45.9642 20.9637C45.9642 19.4844 44.765 18.2852 43.2857 18.2852V23.6423ZM43.6918 22.5034C44.5421 21.2931 44.2503 19.6224 43.04 18.772C41.8293 17.9216 40.159 18.2134 39.3083 19.4239L43.6918 22.5034ZM26.4059 33.5648C25.2781 34.5223 25.1402 36.2127 26.0977 37.3402C27.0552 38.468 28.7455 38.6059 29.873 37.6484L26.4059 33.5648ZM19.3561 39.3577C18.1732 40.2459 17.9345 41.9252 18.8228 43.108C19.7112 44.2909 21.3902 44.5298 22.5731 43.6412L19.3561 39.3577ZM29.9173 37.5959C31.0237 36.6141 31.1248 34.9212 30.143 33.8148C29.1616 32.708 27.4684 32.6069 26.362 33.5887L29.9173 37.5959ZM26.0323 37.2462C26.9459 38.4098 28.6294 38.6127 29.7934 37.6994C30.9569 36.7859 31.1598 35.1023 30.2466 33.9384L26.0323 37.2462ZM26.0927 27.0234C25.4945 25.6702 23.9127 25.0587 22.5599 25.6569C21.2069 26.2552 20.5951 27.8369 21.1935 29.1898L26.0927 27.0234ZM30.2887 34.008C29.4059 32.8209 27.728 32.5744 26.5409 33.4573C25.3541 34.3402 25.1073 36.018 25.9902 37.2052L30.2887 34.008ZM35.7686 45.6452C37.0718 46.3448 38.6958 45.8559 39.3957 44.5523C40.0954 43.2491 39.6065 41.6252 38.3033 40.9252L35.7686 45.6452ZM14.7147 23.6423H29.0002V18.2852H14.7147V23.6423ZM31.6787 20.9637V14.7137H26.3216V20.9637H31.6787ZM29.0002 23.6423H41.5V18.2852H29.0002V23.6423ZM41.5 23.6423H43.2857V18.2852H41.5V23.6423ZM39.3083 19.4239C35.6254 24.6662 31.2898 29.418 26.4059 33.5648L29.873 37.6484C35.1037 33.2073 39.7472 28.118 43.6918 22.5034L39.3083 19.4239ZM22.5731 43.6412C24.3973 42.2712 27.0466 40.1427 29.9173 37.5959L26.362 33.5887C23.5966 36.0419 21.0603 38.0777 19.3561 39.3577L22.5731 43.6412ZM30.2466 33.9384C28.5798 31.8152 27.1845 29.4919 26.0927 27.0234L21.1935 29.1898C22.4652 32.0659 24.0909 34.7723 26.0323 37.2462L30.2466 33.9384ZM25.9902 37.2052C28.5909 40.7019 31.9294 43.5834 35.7686 45.6452L38.3033 40.9252C35.1565 39.2355 32.4205 36.8737 30.2887 34.008L25.9902 37.2052Z" fill="#00453F"/>
<path d="M14.7147 18.2852C13.2354 18.2852 12.0361 19.4844 12.0361 20.9637C12.0361 22.443 13.2354 23.6423 14.7147 23.6423M14.7147 18.2852V23.6423M14.7147 18.2852H29.0002M14.7147 23.6423H29.0002M29.0002 23.6423C30.4794 23.6423 31.6787 22.443 31.6787 20.9637M29.0002 23.6423V18.2852M29.0002 23.6423C27.5209 23.6423 26.3216 22.443 26.3216 20.9637M29.0002 23.6423H41.5M31.6787 20.9637C31.6787 19.4844 30.4794 18.2852 29.0002 18.2852M31.6787 20.9637H26.3216M31.6787 20.9637V14.7137M29.0002 18.2852C27.5209 18.2852 26.3216 19.4844 26.3216 20.9637M29.0002 18.2852H41.5M26.3216 20.9637V14.7137M31.6787 14.7137C31.6787 13.2344 30.4794 12.0352 29.0002 12.0352C27.5209 12.0352 26.3216 13.2344 26.3216 14.7137M31.6787 14.7137H26.3216M41.5 23.6423C42.9793 23.6423 44.1785 22.443 44.1785 20.9637C44.1785 19.4844 42.9793 18.2852 41.5 18.2852M41.5 23.6423V18.2852M41.5 23.6423C40.0207 23.6423 38.8215 22.443 38.8215 20.9637C38.8215 19.4844 40.0207 18.2852 41.5 18.2852M41.5 23.6423H43.2857M41.5 18.2852H43.2857M43.2857 23.6423C44.765 23.6423 45.9642 22.443 45.9642 20.9637C45.9642 19.4844 44.765 18.2852 43.2857 18.2852M43.2857 23.6423V18.2852M43.6918 22.5034C44.5421 21.2931 44.2503 19.6224 43.04 18.772C41.8293 17.9216 40.159 18.2134 39.3083 19.4239M43.6918 22.5034L39.3083 19.4239M43.6918 22.5034C39.7472 28.118 35.1037 33.2073 29.873 37.6484M39.3083 19.4239C35.6254 24.6662 31.2898 29.418 26.4059 33.5648M26.4059 33.5648C25.2781 34.5223 25.1402 36.2127 26.0977 37.3402C27.0552 38.468 28.7455 38.6059 29.873 37.6484M26.4059 33.5648L29.873 37.6484M19.3561 39.3577C18.1732 40.2459 17.9345 41.9252 18.8228 43.108C19.7112 44.2909 21.3902 44.5298 22.5731 43.6412M19.3561 39.3577L22.5731 43.6412M19.3561 39.3577C21.0603 38.0777 23.5966 36.0419 26.362 33.5887M22.5731 43.6412C24.3973 42.2712 27.0466 40.1427 29.9173 37.5959M29.9173 37.5959C31.0237 36.6141 31.1248 34.9212 30.143 33.8148C29.1616 32.708 27.4684 32.6069 26.362 33.5887M29.9173 37.5959L26.362 33.5887M26.0323 37.2462C26.9459 38.4098 28.6294 38.6127 29.7934 37.6994C30.9569 36.7859 31.1598 35.1023 30.2466 33.9384M26.0323 37.2462L30.2466 33.9384M26.0323 37.2462C24.0909 34.7723 22.4652 32.0659 21.1935 29.1898M30.2466 33.9384C28.5798 31.8152 27.1845 29.4919 26.0927 27.0234M26.0927 27.0234C25.4945 25.6702 23.9127 25.0587 22.5599 25.6569C21.2069 26.2552 20.5951 27.8369 21.1935 29.1898M26.0927 27.0234L21.1935 29.1898M30.2887 34.008C29.4059 32.8209 27.728 32.5744 26.5409 33.4573C25.3541 34.3402 25.1073 36.018 25.9902 37.2052M30.2887 34.008L25.9902 37.2052M30.2887 34.008C32.4205 36.8737 35.1565 39.2355 38.3033 40.9252M25.9902 37.2052C28.5909 40.7019 31.9294 43.5834 35.7686 45.6452M35.7686 45.6452C37.0718 46.3448 38.6958 45.8559 39.3957 44.5523C40.0954 43.2491 39.6065 41.6252 38.3033 40.9252M35.7686 45.6452L38.3033 40.9252" stroke="#00453F" stroke-width="2.66667"/>
</svg>
