<svg width="30" height="30" viewBox="0 0 50 50" fill="none" xmlns="http://www.w3.org/2000/svg">
<g clip-path="url(#clip0_616_753)">
<path d="M6.25 0C4.52881 0 3.125 1.40381 3.125 3.125V28.125C3.125 35.9375 8.80127 41.394 13.8916 44.7876C18.9819 48.1812 24.0112 49.8413 24.0112 49.8413C24.6582 50.061 25.3418 50.061 25.9888 49.8413C25.9888 49.8413 31.0181 48.1812 36.1084 44.7876C41.1987 41.394 46.875 35.9375 46.875 28.125V3.125C46.875 1.40381 45.4712 0 43.75 0H6.25ZM9.375 6.25H40.625V28.125C40.625 32.8125 36.9263 36.731 32.6416 39.5874C28.8452 42.1143 25.8301 43.1152 25 43.4204C24.1699 43.1152 21.1548 42.1143 17.3584 39.5874C13.0737 36.731 9.375 32.8125 9.375 28.125V6.25ZM12.5 9.375V28.125C12.5 31.25 15.21 34.3994 19.0918 36.9873C22.0093 38.9282 23.6938 39.4409 25 39.9536C26.3062 39.4409 27.9907 38.9282 30.9082 36.9873C34.79 34.3994 37.5 31.25 37.5 28.125V9.375H12.5Z" fill="#00453F" stroke="#00453F"/>
</g>
<defs>
<clipPath id="clip0_616_753">
<rect width="50" height="50" fill="white"/>
</clipPath>
</defs>
</svg>
